<svg xmlns="http://www.w3.org/2000/svg" xmlns:xlink="http://www.w3.org/1999/xlink" width="20" height="20" viewBox="0 0 20 20">
  <defs>
    <clipPath id="clip-path">
      <rect id="Rectangle_278" data-name="Rectangle 278" width="20" height="20" transform="translate(1039 3473)" fill="#072974" stroke="#707070" stroke-width="1"/>
    </clipPath>
  </defs>
  <g id="icon-came-w" transform="translate(-1039 -3473)" clip-path="url(#clip-path)">
    <g id="cctv-camera" transform="translate(1039 3473)">
      <path id="XMLID_1235_" d="M19.475,6.695,8.123.141A1.051,1.051,0,0,0,6.688.526l-2.885,5a.992.992,0,0,0,.363,1.355l2.5,1.442a2.255,2.255,0,0,0,.568,2.4V14.57H4.219v-2.7a.391.391,0,0,0-.391-.391H.391A.391.391,0,0,0,0,11.875v7.734A.391.391,0,0,0,.391,20H3.828a.391.391,0,0,0,.391-.391v-2.7H7.494a1.483,1.483,0,0,0,2.081-2.081V11.189a2.241,2.241,0,0,0,.924-.655l2.622,1.514a.992.992,0,0,0,1.307-.289l1.154.666h0L16.7,13.683a.391.391,0,0,0,.293.132l.039,0a.391.391,0,0,0,.3-.193l2.3-3.975a.391.391,0,0,0-.26-.578l-.176-.036a4.723,4.723,0,0,0,.674-.9,1.052,1.052,0,0,0-.385-1.435ZM3.438,19.219H.781V12.266H3.438Zm.781-3.867H6.972a1.478,1.478,0,0,0,0,.781H4.219ZM8.794,14.31a1.478,1.478,0,0,0-.781,0V11.2a2.233,2.233,0,0,0,.76.133h.022Zm4.717-2.94L4.557,6.2a.211.211,0,0,1-.077-.288l.537-.931a1.049,1.049,0,0,0,.216.165L13.4,9.861a4.727,4.727,0,0,0,.982.427l-.58,1a.211.211,0,0,1-.288.077Zm2.123.181-.812-.469.36-.624a4.659,4.659,0,0,0,1.078.007Zm1.288,1.207-.655-.74L17.3,10.237a4.746,4.746,0,0,0,1.13-.564l.249.051Zm2.261-5.02a3.954,3.954,0,0,1-5.395,1.446L5.623,4.471a.27.27,0,0,1-.1-.368L7.365.916A.268.268,0,0,1,7.528.791.271.271,0,0,1,7.6.782a.268.268,0,0,1,.134.036L19.084,7.371A.27.27,0,0,1,19.183,7.739Z" transform="translate(0 0)" fill="#072974"/>
    </g>
  </g>
</svg>
