<svg xmlns="http://www.w3.org/2000/svg" xmlns:xlink="http://www.w3.org/1999/xlink" width="19" height="19" viewBox="0 0 19 19">
  <defs>
    <clipPath id="clip-path">
      <rect id="Rectangle_120" data-name="Rectangle 120" width="19" height="19" transform="translate(375 1040)" fill="#072974" stroke="#707070" stroke-width="1"/>
    </clipPath>
  </defs>
  <g id="icon-ocl-w" transform="translate(-375 -1040)" clip-path="url(#clip-path)">
    <g id="timer" transform="translate(375 1040)">
      <path id="Path_113" data-name="Path 113" d="M10.735,3.079V1.6h.673a.8.8,0,1,0,0-1.6H7.592a.8.8,0,1,0,0,1.6h.673V3.079a8.008,8.008,0,1,0,2.469,0ZM9.5,17.4a6.4,6.4,0,1,1,6.4-6.4,6.412,6.412,0,0,1-6.4,6.4Z" fill="#072974"/>
      <path id="Path_114" data-name="Path 114" d="M10.3,10.659V6.882a.8.8,0,1,0-1.6,0v4.24a.49.49,0,0,0,.144.347L11.086,13.7a.8.8,0,1,0,1.131-1.136L10.3,10.659Z" fill="#072974"/>
    </g>
  </g>
</svg>
