<svg xmlns="http://www.w3.org/2000/svg" xmlns:xlink="http://www.w3.org/1999/xlink" width="19" height="19" viewBox="0 0 19 19">
  <defs>
    <clipPath id="clip-path">
      <rect id="Rectangle_260" data-name="Rectangle 260" width="19" height="19" transform="translate(1204 754)" fill="#072974" stroke="#707070" stroke-width="1"/>
    </clipPath>
  </defs>
  <g id="icon-job-w" transform="translate(-1204 -754)" clip-path="url(#clip-path)">
    <g id="money-bag" transform="translate(1204 754)">
      <g id="Group_192" data-name="Group 192">
        <g id="Group_191" data-name="Group 191">
          <path id="Path_167" data-name="Path 167" d="M9.5,11.764a.557.557,0,0,1-.217-1.07.762.762,0,0,1,.819.247.557.557,0,1,0,.775-.8,2.186,2.186,0,0,0-.82-.513V8.98a.557.557,0,0,0-1.113,0v.652c-.032.011-.063.023-.094.036A1.67,1.67,0,0,0,9.5,12.877a.557.557,0,0,1,.191,1.08.855.855,0,0,1-.913-.388.557.557,0,0,0-.852.716,2.313,2.313,0,0,0,1.018.728v.647a.557.557,0,0,0,1.113,0v-.652L10.072,15A1.67,1.67,0,0,0,9.5,11.764Z" fill="#072974"/>
        </g>
      </g>
      <g id="Group_194" data-name="Group 194">
        <g id="Group_193" data-name="Group 193">
          <path id="Path_168" data-name="Path 168" d="M14.655,8.359a7.893,7.893,0,0,0-2.248-1.929,1.673,1.673,0,0,0-.826-2.691L13,1.262A.557.557,0,0,0,12.674.45a11.417,11.417,0,0,0-6.349,0A.557.557,0,0,0,6,1.262L7.419,3.739A1.672,1.672,0,0,0,6.593,6.43,7.893,7.893,0,0,0,4.345,8.359,9.129,9.129,0,0,0,2.264,13.99C2.264,18.039,5.494,19,9.5,19s7.236-.963,7.236-5.01A9.129,9.129,0,0,0,14.655,8.359ZM7.329,1.344a10.329,10.329,0,0,1,4.342,0L10.445,3.482a6.828,6.828,0,0,0-1.89,0ZM7.693,4.82a5.755,5.755,0,0,1,2.935-.179h0a5.876,5.876,0,0,1,.676.178A.557.557,0,0,1,11.193,5.9a5.6,5.6,0,0,0-3.383,0A.556.556,0,0,1,7.693,4.82ZM9.5,17.894c-4.349,0-6.123-1.136-6.123-3.9A8.112,8.112,0,0,1,5.209,9.061,5.622,5.622,0,0,1,9.5,6.754a5.662,5.662,0,0,1,4.291,2.308,8.112,8.112,0,0,1,1.832,4.929C15.623,16.758,13.849,17.894,9.5,17.894Z" fill="#072974"/>
        </g>
      </g>
    </g>
  </g>
</svg>
