<svg xmlns="http://www.w3.org/2000/svg" xmlns:xlink="http://www.w3.org/1999/xlink" width="20" height="20" viewBox="0 0 20 20">
  <defs>
    <clipPath id="clip-path">
      <rect id="Rectangle_283" data-name="Rectangle 283" width="20" height="20" transform="translate(375 4014)" fill="#072974" stroke="#707070" stroke-width="1"/>
    </clipPath>
  </defs>
  <g id="icon-inter-w" transform="translate(-375 -4014)" clip-path="url(#clip-path)">
    <g id="tower" transform="translate(375 4014)">
      <path id="Path_173" data-name="Path 173" d="M11.093,4.9a1.757,1.757,0,1,0-2.226,0l-5.1,14.32a.586.586,0,0,0,.9.666L10.009,15.9l5.281,3.984a.586.586,0,0,0,.9-.664ZM8.316,9.934l.72.543-1.25.943Zm1.693,1.277,2.148,1.621-2.145,1.6L7.876,12.821Zm2.142.148-1.169-.882.674-.508ZM9.98,2.953a.586.586,0,1,1-.586.586A.586.586,0,0,1,9.98,2.953Zm0,2.343h.011l1.253,3.516-1.235.931L8.728,8.778,9.968,5.3H9.98ZM5.519,17.786,7,13.628l2.034,1.535Zm5.468-2.619,1.992-1.486,1.456,4.087Z" fill="#072974"/>
      <path id="Path_174" data-name="Path 174" d="M5.44,7.444a.586.586,0,0,0,.472-.932A5.038,5.038,0,0,1,5.692.894a.586.586,0,0,0-1-.615A6.209,6.209,0,0,0,4.967,7.2a.585.585,0,0,0,.473.24Z" fill="#072974"/>
      <path id="Path_175" data-name="Path 175" d="M6.74,5.272a.586.586,0,0,0,.552-.782,2.85,2.85,0,0,1,0-1.9.586.586,0,0,0-1.1-.391,4.022,4.022,0,0,0,0,2.686.586.586,0,0,0,.552.39Z" fill="#072974"/>
      <path id="Path_176" data-name="Path 176" d="M14.254,7.331a.586.586,0,0,0,.819-.127A6.209,6.209,0,0,0,15.344.278a.586.586,0,0,0-1,.615,5.038,5.038,0,0,1-.22,5.619.586.586,0,0,0,.127.819Z" fill="#072974"/>
      <path id="Path_177" data-name="Path 177" d="M13.1,5.238a.585.585,0,0,0,.748-.357,4.023,4.023,0,0,0,0-2.685.586.586,0,0,0-1.1.391,2.851,2.851,0,0,1,0,1.9.586.586,0,0,0,.357.748Z" fill="#072974"/>
    </g>
  </g>
</svg>
