<svg xmlns="http://www.w3.org/2000/svg" xmlns:xlink="http://www.w3.org/1999/xlink" width="83" height="85" viewBox="0 0 83 85">
  <defs>
    <clipPath id="clip-path">
      <rect id="Rectangle_266" data-name="Rectangle 266" width="83" height="85" transform="translate(0.324 0.189)" fill="#fff" stroke="#707070" stroke-width="1"/>
    </clipPath>
  </defs>
  <g id="icon-boat" transform="translate(-0.324 -0.189)" clip-path="url(#clip-path)">
    <g id="boat" transform="translate(-0.108 15.69)">
      <g id="Group_184" data-name="Group 184" transform="translate(0 0)">
        <g id="Group_183" data-name="Group 183">
          <path id="Path_155" data-name="Path 155" d="M84.231,37.054a2.052,2.052,0,0,0-1.491-.839H65.316L53.576,22.7a1.5,1.5,0,0,0-1.025-.466H38.575a.342.342,0,0,0-.093-.28l-5.218-9.877a1.454,1.454,0,0,0-1.211-.745H25.064a1.433,1.433,0,0,0-1.4,1.4v9.411H18.076a1.593,1.593,0,0,0-1.211.652L8.945,36.122h-4.1a1.372,1.372,0,0,0-1.4,1.4A26.809,26.809,0,0,0,5.591,48.048,10.894,10.894,0,0,0,1.4,47.3a1.4,1.4,0,0,0,0,2.8c3.075,0,4.566,1.118,6.336,2.516,1.864,1.4,3.913,3.075,8.013,3.075h1.3a1.324,1.324,0,0,0,.559-.186c2.888-.373,4.566-1.77,6.15-2.888,1.677-1.3,3.168-2.516,6.336-2.516,3.075,0,4.566,1.118,6.336,2.516,1.864,1.4,3.913,3.075,8.013,3.075s6.15-1.677,8.013-3.075c1.677-1.3,3.168-2.516,6.336-2.516,3.075,0,4.566,1.118,6.336,2.516,1.864,1.4,3.913,3.075,8.013,3.075a1.4,1.4,0,0,0,0-2.8,7.347,7.347,0,0,1-2.609-.373L83.952,38.544A1.46,1.46,0,0,0,84.231,37.054ZM33.171,18.046l2.236,4.286H26.462V18.046Zm-6.8-3.82h4.752l.559,1.025H26.369V14.225ZM18.915,25.034H51.9l4.379,5.032H15.84Zm-4.659,7.827H58.7l2.982,3.354H12.206ZM67.739,51.31l-1.118-.839c-1.864-1.4-3.913-3.075-8.013-3.075s-6.15,1.677-8.013,3.075c-1.677,1.3-3.168,2.516-6.336,2.516-3.075,0-4.566-1.118-6.336-2.516-1.864-1.4-3.913-3.075-8.013-3.075-4.007,0-6.15,1.677-8.013,3.075-1.584,1.211-2.982,2.329-5.684,2.423a8.614,8.614,0,0,1-5.963-2.609c-3.168-3.261-3.913-8.759-4.1-11.274H79.386Z" transform="translate(0 -11.337)" fill="#fff"/>
        </g>
      </g>
      <g id="Group_186" data-name="Group 186" transform="translate(0 44.072)">
        <g id="Group_185" data-name="Group 185">
          <path id="Path_156" data-name="Path 156" d="M73.143,48.287c-3.075,0-4.566-1.118-6.336-2.516-1.864-1.4-3.913-3.075-8.013-3.075s-6.15,1.677-8.013,3.075c-1.677,1.3-3.168,2.516-6.336,2.516-3.075,0-4.566-1.118-6.336-2.516C36.245,44.373,34.2,42.7,30.1,42.7c-4.007,0-6.15,1.677-8.013,3.075-1.677,1.3-3.168,2.516-6.336,2.516-3.075,0-4.566-1.118-6.336-2.516C7.547,44.373,5.5,42.7,1.4,42.7a1.4,1.4,0,1,0,0,2.8c3.075,0,4.566,1.118,6.336,2.516a11.6,11.6,0,0,0,8.013,3.075c4.007,0,6.15-1.677,8.013-3.075,1.677-1.3,3.168-2.516,6.336-2.516,3.075,0,4.566,1.118,6.336,2.516,1.864,1.4,3.913,3.075,8.013,3.075s6.15-1.677,8.013-3.075c1.677-1.3,3.168-2.516,6.336-2.516,3.075,0,4.566,1.118,6.336,2.516,1.864,1.4,3.913,3.075,8.013,3.075a1.4,1.4,0,0,0,0-2.8Z" transform="translate(0 -42.696)" fill="#fff"/>
        </g>
      </g>
    </g>
  </g>
</svg>
