<svg xmlns="http://www.w3.org/2000/svg" xmlns:xlink="http://www.w3.org/1999/xlink" width="14" height="14" viewBox="0 0 14 14">
  <defs>
    <clipPath id="clip-path">
      <rect id="Rectangle_286" data-name="Rectangle 286" width="14" height="14" transform="translate(375 695)" fill="silver" stroke="#707070" stroke-width="1"/>
    </clipPath>
  </defs>
  <g id="icon-oclock" transform="translate(-375 -695)" clip-path="url(#clip-path)">
    <g id="clock" transform="translate(375 695)">
      <path id="Path_190" data-name="Path 190" d="M7.909.909a7,7,0,1,0,7,7,7,7,0,0,0-7-7Zm0,12.727a5.727,5.727,0,1,1,5.727-5.727A5.727,5.727,0,0,1,7.909,13.636Z" transform="translate(-0.909 -0.909)" fill="silver"/>
      <path id="Path_191" data-name="Path 191" d="M11.273,8.737V5.182a.636.636,0,1,0-1.273,0V9a.636.636,0,0,0,.186.45L12.1,11.359a.636.636,0,1,0,.9-.9Z" transform="translate(-3.636 -2)" fill="silver"/>
    </g>
  </g>
</svg>
