<svg xmlns="http://www.w3.org/2000/svg" xmlns:xlink="http://www.w3.org/1999/xlink" width="83" height="83" viewBox="0 0 83 83">
  <defs>
    <clipPath id="clip-path">
      <path id="Rectangle_266" data-name="Rectangle 266" d="M0,0H83V83H0Z" transform="translate(0 0)" fill="none" stroke="#707070" stroke-width="1"/>
    </clipPath>
  </defs>
  <g id="icon-run" clip-path="url(#clip-path)">
    <g id="zebra-crossing" transform="translate(5.699 0.597)">
      <g id="Group_200" data-name="Group 200" transform="translate(0 0)">
        <g id="Path_182" data-name="Path 182" transform="translate(46.526)" fill="none" stroke-linecap="round" stroke-linejoin="round">
          <path d="M6.982,14.124a6.422,6.422,0,1,1,2.552-.216A6.431,6.431,0,0,1,6.982,14.124Z" stroke="none"/>
          <path d="M 7.728540420532227 15.41700077056885 C 7.728607177734375 15.41700077056885 7.728672027587891 15.41700077056885 7.728736877441406 15.41700077056885 C 7.728799819946289 15.41700077056885 7.728862762451172 15.41700077056885 7.728923797607422 15.41700077056885 C 7.728984832763672 15.41700077056885 7.729047775268555 15.41700077056885 7.729110717773438 15.41700077056885 C 7.729175567626953 15.41700077056885 7.729240417480469 15.41700077056885 7.729307174682617 15.41700077056885 C 8.706304550170898 15.41690540313721 9.644359588623047 15.23339939117432 10.50888061523438 14.89738750457764 C 11.37339973449707 14.56137466430664 12.16438579559326 14.07285594940186 12.84724998474121 13.46273517608643 C 13.53011417388916 12.852614402771 14.10485553741455 12.12089252471924 14.53688430786133 11.2984733581543 C 14.96891403198242 10.47605419158936 15.25823020935059 9.56293773651123 15.37024593353271 8.590030670166016 C 15.48987579345703 7.534378051757812 15.38939094543457 6.503438949584961 15.10544776916504 5.54327392578125 C 14.82150554656982 4.583108425140381 14.35410594940186 3.693717479705811 13.73990821838379 2.921161890029907 C 13.12571144104004 2.148606300354004 12.36471557617188 1.492886066436768 11.49357986450195 1.000062227249146 C 10.62244415283203 0.5072382688522339 9.641170501708984 0.1773108243942261 8.586416244506836 0.05634081363677979 C 8.513057708740234 0.04791581630706787 8.439418792724609 0.04052829742431641 8.365631103515625 0.03418612480163574 C 8.291841506958008 0.02784395217895508 8.217903137207031 0.02254700660705566 8.143947601318359 0.0183032751083374 C 8.069992065429688 0.01405954360961914 7.996021270751953 0.01086890697479248 7.922164916992188 0.008739233016967773 C 7.848308563232422 0.006609439849853516 7.774568557739258 0.005540728569030762 7.701076507568359 0.005540728569030762 C 6.723125457763672 0.005540728569030762 5.784242630004883 0.1891144514083862 4.919033050537109 0.5253337025642395 C 4.053825378417969 0.8615529537200928 3.262290954589844 1.350417613983154 2.579042434692383 1.960999488830566 C 1.895793914794922 2.571581363677979 1.320827484130859 3.303880453109741 0.8887557983398438 4.126968383789062 C 0.4566841125488281 4.950056552886963 0.1675033569335938 5.863933563232422 0.05582618713378906 6.837670803070068 C -0.0025177001953125 7.349058151245117 -0.010223388671875 7.85842227935791 0.03104782104492188 8.359979629516602 C 0.07231903076171875 8.861536026000977 0.162567138671875 9.355286598205566 0.3001270294189453 9.835448265075684 C 0.4376869201660156 10.3156099319458 0.6225624084472656 10.78218173980713 0.8530902862548828 11.2293815612793 C 1.0836181640625 11.67658138275146 1.359796524047852 12.10440826416016 1.679965972900391 12.50708103179932 C 2.000383377075195 12.91006088256836 2.355266571044922 13.27575016021729 2.739336013793945 13.60122776031494 C 3.123405456542969 13.92670631408691 3.536663055419922 14.2119722366333 3.973834991455078 14.45410346984863 C 4.411006927490234 14.69623470306396 4.872091293334961 14.89523124694824 5.351810455322266 15.048171043396 C 5.831531524658203 15.20111179351807 6.329889297485352 15.30799579620361 6.841606140136719 15.36590099334717 C 6.914682388305664 15.37434864044189 6.988204956054688 15.38176536560059 7.061994552612305 15.38813972473145 C 7.135784149169922 15.3945140838623 7.209840774536133 15.39984607696533 7.283988952636719 15.40412139892578 C 7.358135223388672 15.40839672088623 7.432373046875 15.41161632537842 7.506523132324219 15.41376781463623 C 7.58067512512207 15.41591930389404 7.654739379882812 15.41700077056885 7.728540420532227 15.41700077056885 Z M 7.701076507568359 2.50554084777832 C 7.750831604003906 2.50554084777832 7.800769805908203 2.506266355514526 7.850803375244141 2.507712364196777 C 7.900838851928711 2.509158611297607 7.950969696044922 2.511325120925903 8.001110076904297 2.514206886291504 C 8.051250457763672 2.517088890075684 8.101398468017578 2.520685911178589 8.151468276977539 2.524993419647217 C 8.2015380859375 2.529300689697266 8.251529693603516 2.534318208694458 8.301355361938477 2.540040731430054 C 9.014244079589844 2.621800899505615 9.677455902099609 2.844790935516357 10.2662239074707 3.1778564453125 C 10.8549919128418 3.510921955108643 11.36931610107422 3.954062938690186 11.78442764282227 4.47612476348877 C 12.199538230896 4.998186588287354 12.51543617248535 5.599169254302979 12.70735359191895 6.247918128967285 C 12.89927196502686 6.89666748046875 12.96720886230469 7.593183040618896 12.88639640808105 8.306310653686523 C 12.8107738494873 8.963138580322266 12.61547660827637 9.579703330993652 12.32385730743408 10.13509082794189 C 12.0322380065918 10.69047737121582 11.64429473876953 11.18468570709229 11.18338012695312 11.59679889678955 C 10.72246551513672 12.00891208648682 10.1885814666748 12.33893013000488 9.605075836181641 12.56593608856201 C 9.021572113037109 12.79294204711914 8.388446807861328 12.91693592071533 7.729055404663086 12.91700077056885 C 7.729015350341797 12.91700077056885 7.728973388671875 12.91700077056885 7.728931427001953 12.91700077056885 C 7.728889465332031 12.91700077056885 7.728845596313477 12.91700077056885 7.728801727294922 12.91700077056885 C 7.728757858276367 12.91700077056885 7.728713989257812 12.91700077056885 7.728672027587891 12.91700077056885 C 7.728628158569336 12.91700077056885 7.728586196899414 12.91700077056885 7.728546142578125 12.91700077056885 C 7.678627014160156 12.91700077056885 7.628511428833008 12.91626739501953 7.578287124633789 12.91480541229248 C 7.52806282043457 12.91334247589111 7.477729797363281 12.91115093231201 7.427375793457031 12.90823650360107 C 7.377021789550781 12.90532207489014 7.326644897460938 12.90168285369873 7.276332855224609 12.89732456207275 C 7.226020812988281 12.89296722412109 7.175773620605469 12.88789081573486 7.125677108764648 12.88210105895996 C 6.779329299926758 12.84290599822998 6.442195892333984 12.77065753936768 6.117790222167969 12.66732406616211 C 5.793384552001953 12.56399059295654 5.481708526611328 12.42957305908203 5.186277389526367 12.266037940979 C 4.890846252441406 12.10250377655029 4.611663818359375 11.90985202789307 4.352243423461914 11.69005107879639 C 4.092823028564453 11.47025012969971 3.853164672851562 11.22330093383789 3.636785507202148 10.95117092132568 C 3.420509338378906 10.67916393280029 3.23394775390625 10.39015960693359 3.078226089477539 10.08807468414307 C 2.922504425048828 9.785988807678223 2.797618865966797 9.470821380615234 2.704694747924805 9.146487236022949 C 2.611770629882812 8.822153091430664 2.550804138183594 8.488651275634766 2.522918701171875 8.149896621704102 C 2.495033264160156 7.811142921447754 2.500228881835938 7.467135906219482 2.539627075195312 7.121790885925293 C 2.615074157714844 6.463945865631104 2.810344696044922 5.846508026123047 3.102073669433594 5.290388584136963 C 3.393802642822266 4.734269142150879 3.781990051269531 4.239468574523926 4.243267059326172 3.826898336410522 C 4.704544067382812 3.414328336715698 5.238910675048828 3.083988904953003 5.823001861572266 2.856791973114014 C 6.407093048095703 2.629595041275024 7.04090690612793 2.50554084777832 7.701076507568359 2.50554084777832 Z" stroke="none" fill="#fff"/>
        </g>
        <g id="Path_183" data-name="Path 183" transform="translate(11.555 13.112)" fill="none" stroke-linecap="round" stroke-linejoin="round">
          <path d="M20.078,21.059q.05-.172.109-.345t.128-.348q.069-.174.149-.35t.171-.351q.659-1.283,1.332-2.56t1.358-2.547q.685-1.271,1.381-2.536t1.4-2.526l-1.492.115-1.492.116-1.492.116-1.492.116-1.021,2.018L18.1,14l-1.021,2.019-1.022,2.019A3.257,3.257,0,0,1,13.8,19.876a3.768,3.768,0,0,1-2.644-.5A4.214,4.214,0,0,1,9.335,17.26a3.69,3.69,0,0,1,.215-3.026c.439-.868.9-2.008,1.41-3.234s1.079-2.539,1.732-3.754a13.02,13.02,0,0,1,2.254-3.169A4.793,4.793,0,0,1,17.921,2.6l3.618-.281,3.619-.281,3.619-.281L32.4,1.476c.029,0,.057,0,.084,0l.081,0,.08,0,.082,0a6.46,6.46,0,0,1,2.8-.1,7.636,7.636,0,0,1,2.646,1.012,7.549,7.549,0,0,1,2.1,1.9,6.347,6.347,0,0,1,1.161,2.557A28.338,28.338,0,0,0,43.5,10.6a20.152,20.152,0,0,0,2.6,3.2,16.767,16.767,0,0,0,3.249,2.523,17.367,17.367,0,0,0,4.021,1.734,3.526,3.526,0,0,1,2.307,1.9,4.046,4.046,0,0,1,.189,2.753,3.917,3.917,0,0,1-1.559,2.241,3.417,3.417,0,0,1-2.938.366,25.4,25.4,0,0,1-4.105-1.589,23.47,23.47,0,0,1-3.544-2.152,24.327,24.327,0,0,1-3.043-2.661,27.968,27.968,0,0,1-2.6-3.115q-.727,1.295-1.444,2.6T35.21,21q-.706,1.306-1.4,2.619t-1.374,2.633q1.5,1.031,2.9,2.169T38.048,30.8q1.313,1.241,2.54,2.583t2.371,2.779a4.257,4.257,0,0,1,.51.807,3.418,3.418,0,0,1,.271.8,3.126,3.126,0,0,1,.058.783,3.239,3.239,0,0,1-.129.749c0,.089,0,.179,0,.271s-.007.185-.016.279-.021.191-.037.29-.037.2-.063.3l-.881,3.484-.881,3.484L40.911,50.9,40.03,54.38A3.908,3.908,0,0,1,38.1,56.944a4.479,4.479,0,0,1-2.926.439,3.964,3.964,0,0,1-2.456-1.423,3.422,3.422,0,0,1-.516-3.023l.839-3.318.839-3.319.839-3.32.839-3.321q-1.052-1.239-2.2-2.394t-2.382-2.2q-1.237-1.05-2.564-1.987t-2.744-1.741a4.454,4.454,0,0,1-.607-.414,3.98,3.98,0,0,1-.49-.474,3.814,3.814,0,0,1-.382-.522,3.9,3.9,0,0,1-.281-.561c-1.292,1.98-2.584,4.149-3.877,6.394S17.454,40.32,16.162,42.6s-2.584,4.518-3.875,6.6a65.874,65.874,0,0,1-3.874,5.674,3.683,3.683,0,0,1-2.757,1.517A4.221,4.221,0,0,1,2.9,55.483a4.18,4.18,0,0,1-1.573-2.43,3.659,3.659,0,0,1,.793-3.041C4.04,47.143,6.029,44.058,7.957,41s3.793-6.077,5.465-8.82,3.15-5.208,4.3-7.144S19.707,21.693,20.078,21.059Z" stroke="none"/>
          <path d="M 36.01979064941406 58.70921325683594 C 36.65901565551758 58.70921325683594 37.26654434204102 58.61049652099609 37.82788848876953 58.42423248291016 C 38.38923645019531 58.23796844482422 38.90439605712891 57.96414947509766 39.35888290405273 57.61394500732422 C 39.81336975097656 57.26374053955078 40.20718383789062 56.83715057373047 40.52584075927734 56.3453369140625 C 40.8444938659668 55.85352325439453 41.08798599243164 55.29649353027344 41.24182891845703 54.68540191650391 C 41.42561721801758 53.95947265625 41.60936737060547 53.23337554931641 41.7930908203125 52.50716400146484 C 41.97681427001953 51.78095245361328 42.1605110168457 51.05461120605469 42.34418487548828 50.32820129394531 C 42.52785873413086 49.60179138183594 42.71151351928711 48.87530517578125 42.89515686035156 48.14878845214844 C 43.07879638671875 47.42227172851562 43.26242446899414 46.69573211669922 43.44605255126953 45.96920013427734 C 43.55597305297852 45.53427886962891 43.6658935546875 45.09935760498047 43.77581787109375 44.66444396972656 C 43.8857421875 44.22953033447266 43.99567031860352 43.79463195800781 44.1056022644043 43.3597412109375 C 44.21553421020508 42.92485046386719 44.32546997070312 42.48997497558594 44.43541717529297 42.05511474609375 C 44.54536056518555 41.62026214599609 44.65531539916992 41.1854248046875 44.76528167724609 40.75060272216797 C 44.79162216186523 40.64653778076172 44.81452560424805 40.54257202148438 44.83406448364258 40.43797302246094 C 44.85360336303711 40.3333740234375 44.86978149414062 40.22814178466797 44.88266754150391 40.12155151367188 C 44.89555358886719 40.01495361328125 44.90514755249023 39.90699768066406 44.91152954101562 39.79694366455078 C 44.91791534423828 39.6868896484375 44.92108535766602 39.57473754882812 44.92111587524414 39.45974731445312 C 45.00749588012695 39.11056518554688 45.05067825317383 38.75872039794922 45.05149459838867 38.40801239013672 C 45.05231094360352 38.05730438232422 45.01075744628906 37.70773315429688 44.92766571044922 37.36309814453125 C 44.84457015991211 37.01847076416016 44.71994018554688 36.67877960205078 44.55459594726562 36.34783935546875 C 44.38925170898438 36.01689910888672 44.18319702148438 35.69470977783203 43.93725967407227 35.38506317138672 C 43.20140838623047 34.46061706542969 42.44180297851562 33.56727600097656 41.6596794128418 32.70621490478516 C 40.87755584716797 31.84515190124512 40.07291412353516 31.0163631439209 39.24699783325195 30.22101402282715 C 38.42108154296875 29.4256649017334 37.57389450073242 28.66375541687012 36.70667266845703 27.93645286560059 C 35.83945465087891 27.20914649963379 34.95220184326172 26.51644706726074 34.04615783691406 25.85951042175293 C 34.36741256713867 25.24171257019043 34.69491577148438 24.61762428283691 35.02935409545898 23.98596000671387 C 35.36379241943359 23.35429954528809 35.70517349243164 22.71506309509277 36.05418395996094 22.06696510314941 C 36.40319442749023 21.41886711120605 36.75983810424805 20.76190376281738 37.12480926513672 20.09478950500488 C 37.48978042602539 19.42767524719238 37.86308288574219 18.75041007995605 38.24540328979492 18.06170845031738 C 39.10308074951172 19.10478019714355 40.00860977172852 20.06038093566895 40.96490478515625 20.93058204650879 C 41.92120361328125 21.80078315734863 42.92826461791992 22.58558464050293 43.98899841308594 23.28706550598145 C 45.04972839355469 23.98854637145996 46.16413497924805 24.60669898986816 47.33511734008789 25.14360618591309 C 48.50609970092773 25.68050956726074 49.73366165161133 26.13616371154785 51.02070999145508 26.51264381408691 C 51.14582061767578 26.54927635192871 51.27090835571289 26.58139610290527 51.39574813842773 26.60897254943848 C 51.52058792114258 26.63654899597168 51.64517974853516 26.65957832336426 51.7692985534668 26.67803001403809 C 51.8934211730957 26.69648170471191 52.01707458496094 26.71035575866699 52.14002990722656 26.71961402893066 C 52.26299285888672 26.72887229919434 52.38525772094727 26.73352241516113 52.50661087036133 26.73352241516113 C 52.81589508056641 26.73352241516113 53.12037658691406 26.70271110534668 53.41672515869141 26.64250373840332 C 53.71307373046875 26.58229637145996 54.00128173828125 26.49269676208496 54.27801513671875 26.37512016296387 C 54.55474853515625 26.25754356384277 54.82000732421875 26.11198997497559 55.07044219970703 25.93987846374512 C 55.32088470458984 25.76777076721191 55.55650329589844 25.56910514831543 55.77397155761719 25.34530448913574 C 55.96577835083008 25.14790534973145 56.14168548583984 24.93328666687012 56.30021286010742 24.70451164245605 C 56.458740234375 24.47573280334473 56.59989166259766 24.23280143737793 56.72219085693359 23.97878074645996 C 56.84449005126953 23.72476005554199 56.94793319702148 23.45965003967285 57.03104782104492 23.18651390075684 C 57.11416625976562 22.91338157653809 57.17694854736328 22.6322193145752 57.21792984008789 22.34610176086426 C 57.29444122314453 21.81188011169434 57.29172515869141 21.25322914123535 57.20026779174805 20.70278739929199 C 57.10881042480469 20.15234184265137 56.92860794067383 19.61010551452637 56.65015029907227 19.10870552062988 C 56.37168884277344 18.60730743408203 55.99497604370117 18.14674949645996 55.5104866027832 17.75966453552246 C 55.02599716186523 17.37257957458496 54.43373870849609 17.05896949768066 53.72418975830078 16.85146331787109 C 52.494384765625 16.49188423156738 51.35141754150391 16.01552200317383 50.28732299804688 15.41485023498535 C 49.22322082519531 14.81417655944824 48.23799133300781 14.08919334411621 47.32365036010742 13.23237037658691 C 46.40930938720703 12.37554740905762 45.56586456298828 11.38688659667969 44.78533554077148 10.25885581970215 C 44.00480651855469 9.130826950073242 43.28719711303711 7.863428115844727 42.62453460693359 6.449132919311523 C 42.42308044433594 5.545242309570312 42.04648590087891 4.691688537597656 41.53436279296875 3.919795989990234 C 41.02223968505859 3.147903442382812 40.37458038330078 2.457672119140625 39.63100051879883 1.880427360534668 C 38.88742065429688 1.303182601928711 38.04792022705078 0.8389244079589844 37.15210342407227 0.518977165222168 C 36.25629043579102 0.1990299224853516 35.30416870117188 0.02339363098144531 34.33534240722656 0.02339363098144531 C 34.18675231933594 0.02339363098144531 34.03871154785156 0.02765846252441406 33.89141845703125 0.03616142272949219 C 33.7441291809082 0.04466342926025391 33.59758758544922 0.05740451812744141 33.45200347900391 0.07435798645019531 C 33.30641555786133 0.09131145477294922 33.16178131103516 0.1124773025512695 33.01830673217773 0.1378288269042969 C 32.87483215332031 0.1631813049316406 32.73250961303711 0.1927204132080078 32.59154510498047 0.2264194488525391 C 32.58241653442383 0.2260074615478516 32.57296752929688 0.225616455078125 32.5632209777832 0.2252607345581055 C 32.5534782409668 0.2249050140380859 32.54344177246094 0.2245855331420898 32.53313446044922 0.2243175506591797 C 32.5228271484375 0.2240505218505859 32.51224899291992 0.2238340377807617 32.50142669677734 0.2236843109130859 C 32.49060440063477 0.2235355377197266 32.47953796386719 0.2234535217285156 32.4682502746582 0.2234535217285156 C 32.45371627807617 0.2234535217285156 32.43936157226562 0.2235851287841797 32.42513275146484 0.2238492965698242 C 32.41090393066406 0.2241134643554688 32.39680480957031 0.2245101928710938 32.38278198242188 0.2250432968139648 C 32.3687629699707 0.2255764007568359 32.35482025146484 0.2262439727783203 32.34091186523438 0.2270488739013672 C 32.32699966430664 0.2278528213500977 32.31311798095703 0.2287940979003906 32.29921722412109 0.2298736572265625 L 27.57197952270508 0.5964231491088867 C 26.75959777832031 0.659393310546875 25.94722747802734 0.7223625183105469 25.13487243652344 0.7853488922119141 C 24.32251739501953 0.8483352661132812 23.51018524169922 0.9113378524780273 22.6978759765625 0.9743766784667969 C 21.88556671142578 1.03741455078125 21.07328033447266 1.100488662719727 20.26102447509766 1.163617134094238 C 19.44876861572266 1.22674560546875 18.63653945922852 1.289928436279297 17.82434844970703 1.353183746337891 C 17.32464218139648 1.391885757446289 16.84146881103516 1.497268676757812 16.37328338623047 1.670421600341797 C 15.90510177612305 1.843574523925781 15.45191192626953 2.084497451782227 15.01217269897461 2.394282341003418 C 14.57243347167969 2.704067230224609 14.14614486694336 3.082712173461914 13.73176574707031 3.531309127807617 C 13.31739044189453 3.97990608215332 12.91492462158203 4.498453140258789 12.52283096313477 5.088043212890625 C 12.21690368652344 5.548067092895508 11.92983627319336 6.03167724609375 11.65861511230469 6.528898239135742 C 11.38739013671875 7.026117324829102 11.13201141357422 7.536947250366211 10.88945770263672 8.051414489746094 C 10.64690399169922 8.565881729125977 10.41717529296875 9.083982467651367 10.19725036621094 9.595743179321289 C 9.977321624755859 10.10750389099121 9.767196655273438 10.6129264831543 9.563858032226562 11.1020336151123 C 9.463363647460938 11.34375190734863 9.364265441894531 11.58211708068848 9.266716003417969 11.814453125 C 9.169166564941406 12.04678916931152 9.073165893554688 12.27309417724609 8.978862762451172 12.49069023132324 C 8.884559631347656 12.70828628540039 8.791961669921875 12.91717338562012 8.701217651367188 13.11467170715332 C 8.610477447509766 13.31217002868652 8.521591186523438 13.49828147888184 8.434711456298828 13.67032432556152 C 8.2298583984375 14.07522010803223 8.079914093017578 14.49078941345215 7.984649658203125 14.90984535217285 C 7.889381408691406 15.32890319824219 7.848789215087891 15.7514476776123 7.862648010253906 16.17029571533203 C 7.876506805419922 16.58914375305176 7.944812774658203 17.00429344177246 8.067337036132812 17.4085578918457 C 8.189857482910156 17.81282234191895 8.366600036621094 18.20620346069336 8.597328186035156 18.58151435852051 C 8.841148376464844 18.97811698913574 9.135509490966797 19.33963584899902 9.467803955078125 19.65882682800293 C 9.800098419189453 19.97801399230957 10.17032623291016 20.25487327575684 10.56587982177734 20.4821605682373 C 10.96143341064453 20.70944404602051 11.38230895996094 20.88715171813965 11.81589889526367 21.0080394744873 C 12.24948883056641 21.12892723083496 12.69579315185547 21.19299507141113 13.1422004699707 21.19299507141113 C 13.57294464111328 21.19299507141113 13.98768615722656 21.13387870788574 14.38055419921875 21.01943016052246 C 14.77342224121094 20.90497779846191 15.14441680908203 20.73519706726074 15.4876594543457 20.51387977600098 C 15.83090209960938 20.29256248474121 16.14638900756836 20.01970481872559 16.42824554443359 19.69909477233887 C 16.71010208129883 19.37848854064941 16.95832824707031 19.01012992858887 17.16704940795898 18.59781265258789 C 17.39394378662109 18.14957618713379 17.62076568603516 17.70141410827637 17.84753036499023 17.25330543518066 C 18.07429504394531 16.80519676208496 18.30101013183594 16.35714149475098 18.52768707275391 15.90912246704102 C 18.75436401367188 15.46110343933105 18.98100280761719 15.01312065124512 19.20762634277344 14.56515693664551 C 19.43424987792969 14.1171932220459 19.66085433959961 13.66924858093262 19.88745880126953 13.22130393981934 L 20.93523406982422 11.15019989013672 C 21.18105316162109 11.13106727600098 21.42685699462891 11.11195182800293 21.67264938354492 11.09285163879395 C 21.91844177246094 11.07374954223633 22.16422271728516 11.05466270446777 22.40999221801758 11.03558921813965 C 22.65576171875 11.01651573181152 22.90151596069336 10.9974536895752 23.14725875854492 10.97840309143066 C 23.39300155639648 10.95935249328613 23.63873291015625 10.9403133392334 23.88445281982422 10.92127990722656 C 23.47949981689453 11.65580368041992 23.0860710144043 12.37483406066895 22.70329666137695 13.07998085021973 C 22.32052230834961 13.78512763977051 21.94840240478516 14.47638702392578 21.58607864379883 15.15537071228027 C 21.2237548828125 15.83435440063477 20.87121963500977 16.50106239318848 20.52761077880859 17.1570987701416 C 20.18400573730469 17.81313705444336 19.84932708740234 18.45850563049316 19.52270889282227 19.09481430053711 C 19.46260833740234 19.21077537536621 19.40496826171875 19.32843208312988 19.34986114501953 19.44760322570801 C 19.29475784301758 19.56677436828613 19.2421875 19.68745994567871 19.19222259521484 19.80948448181152 C 19.14225769042969 19.93150901794434 19.09489440917969 20.05487251281738 19.05021286010742 20.17939567565918 C 19.00553131103516 20.30391883850098 18.96352386474609 20.42960166931152 18.92426300048828 20.55626487731934 C 18.46372985839844 21.34119987487793 17.58307647705078 22.83663749694824 16.40530395507812 24.81134223937988 C 15.22753143310547 26.78604698181152 13.75264358520508 29.24002647399902 12.10364532470703 31.94204902648926 C 10.45465087890625 34.64407348632812 8.631542205810547 37.59413146972656 6.757331848144531 40.56101226806641 C 4.88311767578125 43.52788543701172 2.957798004150391 46.51157379150391 1.104381561279297 49.28084564208984 C 0.799224853515625 49.67894744873047 0.5568046569824219 50.09622955322266 0.3780059814453125 50.52519226074219 C 0.1992111206054688 50.95415496826172 0.08403778076171875 51.39480590820312 0.03337860107421875 51.83963775634766 C -0.01728057861328125 52.28446960449219 -0.003429412841796875 52.73348236083984 0.07582855224609375 53.17919158935547 C 0.1550827026367188 53.62489318847656 0.29974365234375 54.06728363037109 0.5107002258300781 54.49885559082031 C 0.7408828735351562 54.96977996826172 1.038063049316406 55.40206146240234 1.386306762695312 55.78559112548828 C 1.734554290771484 56.16911315917969 2.133869171142578 56.50389099121094 2.568321228027344 56.77980804443359 C 3.002773284912109 57.05571746826172 3.472358703613281 57.27277374267578 3.961154937744141 57.42085266113281 C 4.449951171875 57.56893157958984 4.957950592041016 57.64804077148438 5.469226837158203 57.64806365966797 C 5.469322204589844 57.64806365966797 5.469402313232422 57.64806365966797 5.469474792480469 57.64806365966797 C 5.469551086425781 57.64806365966797 5.469619750976562 57.64806365966797 5.469688415527344 57.64806365966797 C 5.469757080078125 57.64806365966797 5.469825744628906 57.64806365966797 5.469902038574219 57.64806365966797 C 5.469974517822266 57.64806365966797 5.470054626464844 57.64806365966797 5.470149993896484 57.64806365966797 C 5.852127075195312 57.64799499511719 6.225826263427734 57.60347747802734 6.587226867675781 57.51654815673828 C 6.948631286621094 57.42961120605469 7.297733306884766 57.30027008056641 7.630523681640625 57.13057708740234 C 7.963310241699219 56.96088409423828 8.27978515625 56.75083160400391 8.575931549072266 56.50246429443359 C 8.872077941894531 56.25410461425781 9.147891998291016 55.96743011474609 9.399360656738281 55.64449310302734 C 10.17088317871094 54.65225982666016 10.94356918334961 53.56371307373047 11.71553039550781 52.40576934814453 C 12.48749160766602 51.24781799316406 13.25872802734375 50.02046966552734 14.02735137939453 48.75063323974609 C 14.79597473144531 47.48079681396484 15.56198120117188 46.16847229003906 16.32349014282227 44.840576171875 C 17.08499908447266 43.51268005371094 17.84201049804688 42.16920471191406 18.59262847900391 40.83707427978516 C 19.03347396850586 40.05470275878906 19.47747802734375 39.26673126220703 19.92353057861328 38.47992706298828 C 20.36958312988281 37.69312286376953 20.81768035888672 36.90748596191406 21.26671600341797 36.12979125976562 C 21.71575164794922 35.35210418701172 22.16572570800781 34.58235931396484 22.61552429199219 33.82734680175781 C 23.0653190612793 33.07232666015625 23.51494216918945 32.33203125 23.96327972412109 31.61323738098145 C 24.0432014465332 31.68937492370605 24.12593460083008 31.7633228302002 24.21145629882812 31.83505821228027 C 24.29698181152344 31.90679359436035 24.38529968261719 31.97631645202637 24.47638702392578 32.04360198974609 C 24.56747436523438 32.11088562011719 24.66133117675781 32.17594146728516 24.75794219970703 32.23873138427734 C 24.85455322265625 32.30152130126953 24.95391845703125 32.362060546875 25.05601119995117 32.42031097412109 C 25.88533020019531 32.89115905761719 26.69919204711914 33.4031982421875 27.49642562866211 33.9554443359375 C 28.29365921020508 34.50769805908203 29.07426452636719 35.10015869140625 29.83707809448242 35.73183441162109 C 30.59989166259766 36.36351776123047 31.34490776062012 37.03440856933594 32.07096481323242 37.7435302734375 C 32.79701995849609 38.45265197753906 33.50411605834961 39.20000457763672 34.19108581542969 39.98458862304688 C 33.98666000366211 40.79415893554688 33.78219604492188 41.60362243652344 33.57770156860352 42.41297149658203 C 33.37321090698242 43.22232055664062 33.16869354248047 44.03156280517578 32.96416854858398 44.84069061279297 C 32.7596435546875 45.64982604980469 32.55511093139648 46.45883941650391 32.35058975219727 47.26775360107422 C 32.14606475830078 48.07666015625 31.94155502319336 48.88545989990234 31.73707008361816 49.69414520263672 L 30.99443054199219 52.63125610351562 C 30.89773559570312 53.01410675048828 30.84210014343262 53.39270782470703 30.82674407958984 53.76287078857422 C 30.8113899230957 54.13303375244141 30.83631706237793 54.49474334716797 30.9007453918457 54.84379577636719 C 30.96517181396484 55.19284820556641 31.06910133361816 55.52925109863281 31.21175384521484 55.84879302978516 C 31.35440826416016 56.16832733154297 31.53578567504883 56.47100830078125 31.7551097869873 56.75261688232422 C 31.99365997314453 57.05890655517578 32.272216796875 57.33434295654297 32.58267974853516 57.57520294189453 C 32.89314270019531 57.81606292724609 33.23551177978516 58.02234649658203 33.6016960144043 58.19035339355469 C 33.96788024902344 58.35836029052734 34.35787963867188 58.48807525634766 34.76359176635742 58.57579040527344 C 35.16930770874023 58.66350555419922 35.59073638916016 58.70921325683594 36.01979064941406 58.70921325683594 Z M 38.07815551757812 14.54691123962402 C 38.07221221923828 14.54691123962402 38.06626510620117 14.54695320129395 38.0603141784668 14.54703712463379 C 38.05436706542969 14.54712104797363 38.04841232299805 14.54724884033203 38.04245758056641 14.54741859436035 C 38.03650283813477 14.54758834838867 38.03054046630859 14.54780006408691 38.02457809448242 14.54805564880371 C 38.01861190795898 14.54831314086914 38.01264190673828 14.54861259460449 38.00666046142578 14.54895401000977 C 37.90017700195312 14.55504035949707 37.79630279541016 14.57459831237793 37.6971321105957 14.60632514953613 C 37.59796142578125 14.63805198669434 37.50349426269531 14.68194770812988 37.41581344604492 14.73670959472656 C 37.32813262939453 14.79147148132324 37.24723434448242 14.85710144042969 37.17521286010742 14.93229484558105 C 37.10318756103516 15.00748825073242 37.0400390625 15.09224510192871 36.98785018920898 15.18526268005371 C 36.45685958862305 16.13162994384766 35.94283676147461 17.05594444274902 35.44412612915039 17.96127128601074 C 34.94541168212891 18.86660003662109 34.46201324462891 19.75293922424316 33.99227523803711 20.62335777282715 C 33.52253723144531 21.49377632141113 33.06645202636719 22.3482723236084 32.62237930297852 23.18990898132324 C 32.17830276489258 24.03154563903809 31.74623107910156 24.86032676696777 31.32451057434082 25.67931175231934 C 31.25257110595703 25.81902122497559 31.20936393737793 25.96665382385254 31.19310569763184 26.11509132385254 C 31.17684745788574 26.26352882385254 31.18753814697266 26.41277122497559 31.22339248657227 26.55570411682129 C 31.25924682617188 26.69863700866699 31.32026481628418 26.83525657653809 31.40466117858887 26.95844459533691 C 31.48905754089355 27.08163261413574 31.59683227539062 27.1913890838623 31.72620010375977 27.28060340881348 C 32.66938781738281 27.9310359954834 33.5924072265625 28.62199974060059 34.49375915527344 29.35208320617676 C 35.39511108398438 30.08216667175293 36.2747917175293 30.85136604309082 37.13130950927734 31.65827751159668 C 37.98782348632812 32.46519470214844 38.82117462158203 33.309814453125 39.62986373901367 34.19073486328125 C 40.43855285644531 35.07164764404297 41.22257614135742 35.98886871337891 41.98043823242188 36.94097137451172 C 42.11123657226562 37.10565185546875 42.21964263916016 37.27140808105469 42.30557632446289 37.43794250488281 C 42.39151000976562 37.60447692871094 42.4549674987793 37.77178192138672 42.49586868286133 37.93954467773438 C 42.53676986694336 38.10731506347656 42.55511474609375 38.27554321289062 42.55081558227539 38.44392395019531 C 42.54651641845703 38.6123046875 42.51957702636719 38.78084564208984 42.46990966796875 38.94922637939453 C 42.46059036254883 38.98082733154297 42.45253372192383 39.01274108886719 42.44575119018555 39.04490661621094 C 42.43896865844727 39.07706451416016 42.4334602355957 39.10946655273438 42.42923355102539 39.14203643798828 C 42.42500686645508 39.17460632324219 42.42206573486328 39.20733642578125 42.42041778564453 39.24016571044922 C 42.41876983642578 39.27298736572266 42.41841125488281 39.305908203125 42.41935729980469 39.33883666992188 C 42.42155456542969 39.41515350341797 42.42170333862305 39.48777770996094 42.41971588134766 39.55765533447266 C 42.417724609375 39.62753295898438 42.41360092163086 39.69465637207031 42.40724945068359 39.75995635986328 C 42.40089416503906 39.82526397705078 42.39231109619141 39.88874053955078 42.38140869140625 39.95133972167969 C 42.37050628662109 40.01393127441406 42.35728454589844 40.07563781738281 42.34165191650391 40.13739013671875 C 42.23166275024414 40.57230377197266 42.12168884277344 41.00721740722656 42.01172637939453 41.44214630126953 C 41.90176773071289 41.87706756591797 41.79181671142578 42.31199645996094 41.6818733215332 42.74693298339844 C 41.57192993164062 43.18186187744141 41.46199417114258 43.61680603027344 41.35205841064453 44.05175018310547 C 41.24212646484375 44.4866943359375 41.13219451904297 44.92164611816406 41.02226257324219 45.35660552978516 C 40.83865737915039 46.08304595947266 40.65505218505859 46.80950927734375 40.4714241027832 47.53596496582031 C 40.28779602050781 48.26242828369141 40.10415267944336 48.98888397216797 39.92047500610352 49.71530914306641 C 39.73679351806641 50.44174194335938 39.55308151245117 51.16814422607422 39.36932373046875 51.89450836181641 C 39.18556213378906 52.62087249755859 39.00175476074219 53.34719848632812 38.81787872314453 54.07345581054688 C 38.69314956665039 54.56892395019531 38.48904418945312 54.95014190673828 38.2447624206543 55.24327087402344 C 38.00048065185547 55.53639984130859 37.71602630615234 55.74143218994141 37.43058776855469 55.88453674316406 C 37.14514923095703 56.02764129638672 36.85873413085938 56.10881042480469 36.61053466796875 56.15419769287109 C 36.36233901977539 56.19959259033203 36.15235900878906 56.20921325683594 36.01979064941406 56.20921325683594 C 35.7855339050293 56.20921325683594 35.5549430847168 56.18543243408203 35.3333740234375 56.14020538330078 C 35.11180877685547 56.09497833251953 34.89926147460938 56.02828979492188 34.70109558105469 55.94246673583984 C 34.5029296875 55.85664367675781 34.31914138793945 55.75168609619141 34.15509033203125 55.62991333007812 C 33.99103546142578 55.50814056396484 33.84671783447266 55.36955261230469 33.72748947143555 55.21646881103516 C 33.62633514404297 55.08659362792969 33.54396820068359 54.94770050048828 33.48043060302734 54.80008697509766 C 33.41689300537109 54.65247344970703 33.37218856811523 54.49613189697266 33.34635925292969 54.33135223388672 C 33.32052612304688 54.16657257080078 33.31356811523438 53.99336242675781 33.32553482055664 53.81200408935547 C 33.33750152587891 53.63063812255859 33.36838531494141 53.44112396240234 33.41823959350586 53.24374389648438 L 34.16078948974609 50.30699157714844 C 34.37855529785156 49.44577789306641 34.59635162353516 48.58445739746094 34.81415557861328 47.72301483154297 C 35.03195571899414 46.861572265625 35.24976348876953 46.00001525878906 35.46756362915039 45.13832855224609 C 35.68536376953125 44.27664947509766 35.90315246582031 43.41483306884766 36.12090682983398 42.55288696289062 C 36.33866500854492 41.69094085693359 36.55639266967773 40.828857421875 36.77407073974609 39.96662139892578 C 36.79878616333008 39.86872100830078 36.81129455566406 39.76934051513672 36.81207275390625 39.6705322265625 C 36.81285095214844 39.57172393798828 36.80189895629883 39.47348022460938 36.77968978881836 39.37785339355469 C 36.75747680664062 39.2822265625 36.7240104675293 39.189208984375 36.67976379394531 39.10086059570312 C 36.63551330566406 39.01250457763672 36.58048629760742 38.92881011962891 36.51515197753906 38.85182189941406 C 35.75429153442383 37.95528411865234 34.96868896484375 37.10195159912109 34.15983200073242 36.29307556152344 C 33.35097503662109 35.48419952392578 32.51887130737305 34.71978759765625 31.66500473022461 34.00109100341797 C 30.8111400604248 33.28240203857422 29.93551635742188 32.60942077636719 29.03962707519531 31.98341941833496 C 28.14373779296875 31.35741996765137 27.22758483886719 30.77839088439941 26.29265975952148 30.24759483337402 C 26.14614105224609 30.16398811340332 26.01127243041992 30.07357978820801 25.88773345947266 29.97599601745605 C 25.76419830322266 29.87840843200684 25.65199661254883 29.77364540100098 25.55080413818359 29.66132926940918 C 25.44961166381836 29.54901695251465 25.35942840576172 29.42914772033691 25.27993774414062 29.30135154724121 C 25.2004508972168 29.17355918884277 25.13165283203125 29.0378360748291 25.0732307434082 28.89381217956543 C 25.02950286865234 28.78602409362793 24.97171020507812 28.68653678894043 24.90238571166992 28.59723472595215 C 24.83306121826172 28.50793647766113 24.752197265625 28.42882347106934 24.66233062744141 28.36178398132324 C 24.57246398925781 28.29474449157715 24.47359085083008 28.23977851867676 24.36824035644531 28.19877433776855 C 24.26288604736328 28.15776634216309 24.15105438232422 28.13072395324707 24.03527069091797 28.1195240020752 C 24.02518463134766 28.11855125427246 24.01510620117188 28.11769676208496 24.00503540039062 28.11696815490723 C 23.99496459960938 28.11623954772949 23.98490142822266 28.11563301086426 23.97484588623047 28.11514854431152 C 23.96479034423828 28.11466407775879 23.95474624633789 28.11430168151855 23.94471740722656 28.11406135559082 C 23.93468475341797 28.11382102966309 23.92466735839844 28.11369895935059 23.9146614074707 28.11369895935059 C 23.809814453125 28.11369895935059 23.70648956298828 28.12689399719238 23.60685729980469 28.15224266052246 C 23.50722503662109 28.17759132385254 23.41128158569336 28.2150936126709 23.32118988037109 28.26371574401855 C 23.23109817504883 28.31233406066895 23.14685821533203 28.37206840515137 23.07062911987305 28.4418773651123 C 22.99440002441406 28.51169013977051 22.92618179321289 28.59157752990723 22.86814117431641 28.68050193786621 C 22.32827377319336 29.50765037536621 21.78693771362305 30.37014579772949 21.24562072753906 31.25715446472168 C 20.70430755615234 32.1441650390625 20.16301727294922 33.05569458007812 19.62323379516602 33.98091125488281 C 19.08345031738281 34.9061279296875 18.54518127441406 35.84503173828125 18.00991058349609 36.78678894042969 C 17.47464370727539 37.72855377197266 16.94237518310547 38.67317199707031 16.41460037231445 39.60980987548828 C 15.67514801025391 40.92213439941406 14.92939758300781 42.24562072753906 14.18028259277344 43.55239105224609 C 13.4311637878418 44.85916137695312 12.67868041992188 46.14922332763672 11.92575836181641 47.39468383789062 C 11.17283248901367 48.64014434814453 10.41946411132812 49.84101104736328 9.668582916259766 50.96939086914062 C 8.917701721191406 52.0977783203125 8.169303894042969 53.15367889404297 7.426319122314453 54.10921478271484 C 7.292198181152344 54.28145599365234 7.15045166015625 54.4324951171875 7.001373291015625 54.56217193603516 C 6.852294921875 54.69184875488281 6.695884704589844 54.80016326904297 6.532440185546875 54.88694763183594 C 6.368995666503906 54.97373199462891 6.198513031005859 55.03899383544922 6.021289825439453 55.08257293701172 C 5.844066619873047 55.12614440917969 5.660102844238281 55.14803314208984 5.469688415527344 55.14806365966797 C 5.469657897949219 55.14806365966797 5.469619750976562 55.14806365966797 5.469581604003906 55.14806365966797 C 5.46954345703125 55.14806365966797 5.469505310058594 55.14806365966797 5.469467163085938 55.14806365966797 C 5.469429016113281 55.14806365966797 5.469390869140625 55.14806365966797 5.469352722167969 55.14806365966797 C 5.469318389892578 55.14806365966797 5.469284057617188 55.14806365966797 5.469249725341797 55.14806365966797 C 5.200008392333984 55.14806365966797 4.926780700683594 55.10214996337891 4.660659790039062 55.0174560546875 C 4.394538879394531 54.93276214599609 4.135524749755859 54.80928802490234 3.894699096679688 54.65418243408203 C 3.653877258300781 54.49907684326172 3.431243896484375 54.31233215332031 3.237888336181641 54.10108947753906 C 3.044532775878906 53.88984680175781 2.880455017089844 53.65410614013672 2.756740570068359 53.40100860595703 C 2.682300567626953 53.24871063232422 2.615150451660156 53.07515716552734 2.569229125976562 52.88388824462891 C 2.523307800292969 52.69261169433594 2.498619079589844 52.48361968994141 2.509109497070312 52.26044464111328 C 2.519599914550781 52.03726959228516 2.565265655517578 51.79990386962891 2.660053253173828 51.55190277099609 C 2.754840850830078 51.30389404296875 2.898750305175781 51.04524993896484 3.105728149414062 50.77949523925781 C 3.110321044921875 50.77359771728516 3.114860534667969 50.76766204833984 3.119346618652344 50.76168823242188 C 3.123832702636719 50.75571441650391 3.128261566162109 50.74969482421875 3.132637023925781 50.74363708496094 C 3.137012481689453 50.73757934570312 3.141334533691406 50.73148345947266 3.145603179931641 50.72534942626953 C 3.149871826171875 50.71921539306641 3.154083251953125 50.71304321289062 3.158241271972656 50.70683288574219 C 5.049644470214844 47.88172912597656 7.015357971191406 44.83463287353516 8.926239013671875 41.80839538574219 C 10.83711624145508 38.78215026855469 12.69316101074219 35.77676391601562 14.36521911621094 33.03505706787109 C 16.03727722167969 30.29334831237793 17.52535629272461 27.8153247833252 18.70030212402344 25.84381675720215 C 19.87525177001953 23.8723087310791 20.73706817626953 22.40731620788574 21.15660858154297 21.69167518615723 C 21.16966247558594 21.66940116882324 21.18201446533203 21.6467456817627 21.19364929199219 21.62373924255371 C 21.20528793334961 21.60073661804199 21.21620941162109 21.57738304138184 21.22639465332031 21.5537166595459 C 21.2365837097168 21.53005027770996 21.24604034423828 21.50607109069824 21.2547492980957 21.48180961608887 C 21.26345825195312 21.45754814147949 21.27141952514648 21.43300437927246 21.27861785888672 21.40821266174316 C 21.30856323242188 21.30513572692871 21.34053802490234 21.20397758483887 21.37468338012695 21.10439872741699 C 21.40882873535156 21.00481986999512 21.44514083862305 20.90681648254395 21.48375701904297 20.81004905700684 C 21.52236938476562 20.71328544616699 21.56328964233398 20.61775398254395 21.60665130615234 20.52311897277832 C 21.65000915527344 20.4284839630127 21.69580459594727 20.33474540710449 21.74417877197266 20.24156379699707 C 21.74440002441406 20.24114036560059 21.74462127685547 20.24071311950684 21.74484252929688 20.24028587341309 C 21.74506378173828 20.2398624420166 21.74528503417969 20.23943901062012 21.74550628662109 20.23901176452637 C 21.7457275390625 20.23858451843262 21.74594879150391 20.23816108703613 21.74617004394531 20.23773765563965 C 21.74639129638672 20.2373104095459 21.74661254882812 20.23688316345215 21.74682998657227 20.23645210266113 C 22.14404296875 19.46261024475098 22.55336380004883 18.67510414123535 22.97638702392578 17.87097358703613 C 23.39941024780273 17.06684112548828 23.83613586425781 16.24608612060547 24.28815078735352 15.40574836730957 C 24.74016571044922 14.56540870666504 25.20747375488281 13.70548820495605 25.69166946411133 12.82302665710449 C 26.17586517333984 11.9405632019043 26.67694091796875 11.03555870056152 27.19649124145508 10.10505294799805 C 27.25263214111328 10.00450325012207 27.2938117980957 9.898271560668945 27.32012176513672 9.789419174194336 C 27.34642791748047 9.680568695068359 27.35786437988281 9.569097518920898 27.35452651977539 9.458072662353516 C 27.35118865966797 9.347047805786133 27.33306884765625 9.236467361450195 27.30026245117188 9.12939453125 C 27.2674560546875 9.022321701049805 27.21996307373047 8.918756484985352 27.15787887573242 8.82176399230957 C 27.10016632080078 8.731603622436523 27.03201293945312 8.650516510009766 26.95562744140625 8.579599380493164 C 26.87923812866211 8.508684158325195 26.79461288452148 8.447938919067383 26.70395660400391 8.398466110229492 C 26.61330413818359 8.348991394042969 26.51661682128906 8.310785293579102 26.41610717773438 8.284950256347656 C 26.31559753417969 8.259115219116211 26.21126556396484 8.245647430419922 26.10531616210938 8.245647430419922 C 26.0972900390625 8.245647430419922 26.08925628662109 8.245725631713867 26.08121490478516 8.245880126953125 C 26.07317352294922 8.246034622192383 26.06512832641602 8.246265411376953 26.05707550048828 8.246576309204102 C 26.04902267456055 8.24688720703125 26.04096221923828 8.247276306152344 26.03289413452148 8.247743606567383 C 26.02482604980469 8.248212814331055 26.01674652099609 8.248758316040039 26.00865936279297 8.249383926391602 L 25.95898056030273 8.253232955932617 C 25.46584320068359 8.291387557983398 24.97270965576172 8.32954216003418 24.47955322265625 8.367715835571289 C 23.98639678955078 8.405889511108398 23.49321746826172 8.444084167480469 23 8.482316970825195 C 22.50678253173828 8.520549774169922 22.01352691650391 8.558822631835938 21.52021026611328 8.59715461730957 C 21.02689743041992 8.635488510131836 20.53352355957031 8.673879623413086 20.04006958007812 8.712352752685547 C 19.9312744140625 8.720834732055664 19.82555389404297 8.743352890014648 19.72509384155273 8.7784423828125 C 19.6246337890625 8.813531875610352 19.52943420410156 8.86119270324707 19.44167327880859 8.919967651367188 C 19.35391235351562 8.978742599487305 19.27359390258789 9.048627853393555 19.20289993286133 9.128162384033203 C 19.13220596313477 9.207696914672852 19.07113647460938 9.296880722045898 19.02186965942383 9.394252777099609 L 17.65666961669922 12.09278297424316 C 17.43008804321289 12.54068374633789 17.20350646972656 12.98858451843262 16.97690582275391 13.43650245666504 C 16.75030517578125 13.88442039489746 16.52368545532227 14.33235740661621 16.29703140258789 14.78033065795898 C 16.07037734985352 15.22830390930176 15.84368896484375 15.67631149291992 15.616943359375 16.1243724822998 C 15.39020156860352 16.57243347167969 15.16340637207031 17.02054786682129 14.93653869628906 17.4687328338623 C 14.83373260498047 17.67181968688965 14.71889495849609 17.84988021850586 14.59229278564453 18.00273323059082 C 14.46569061279297 18.15558815002441 14.32731628417969 18.28323554992676 14.17744064331055 18.38549613952637 C 14.02756500244141 18.48775672912598 13.86618041992188 18.56463050842285 13.69355010986328 18.61594009399414 C 13.52092361450195 18.66724967956543 13.33705139160156 18.6929931640625 13.1422004699707 18.6929931640625 C 12.91526794433594 18.6929931640625 12.68299865722656 18.6564769744873 12.45420837402344 18.5886344909668 C 12.22541809082031 18.52079200744629 12.00010299682617 18.42162132263184 11.78708648681641 18.29630851745605 C 11.57406616210938 18.17099571228027 11.37334442138672 18.01954078674316 11.1937370300293 17.84713172912598 C 11.01412963867188 17.67472076416016 10.85563659667969 17.48135566711426 10.72706985473633 17.2722225189209 C 10.64492797851562 17.13861083984375 10.56599044799805 16.98446083068848 10.50229644775391 16.81156730651855 C 10.43860626220703 16.63867568969727 10.39015960693359 16.44704246520996 10.36900329589844 16.23846817016602 C 10.34784698486328 16.02989387512207 10.35398101806641 15.80437660217285 10.39944458007812 15.5637149810791 C 10.44490814208984 15.32305335998535 10.52970504760742 15.06724739074707 10.66587829589844 14.79809379577637 C 10.76324081420898 14.60529136657715 10.86106491088867 14.40102958679199 10.95960235595703 14.18729972839355 C 11.05813598632812 13.97356796264648 11.15737915039062 13.75036811828613 11.25758361816406 13.51968574523926 C 11.3577880859375 13.28900337219238 11.45895385742188 13.05084228515625 11.56132507324219 12.80718803405762 C 11.6636962890625 12.56353569030762 11.76727294921875 12.31439018249512 11.87231063842773 12.06174278259277 C 12.22310638427734 11.21795272827148 12.60631561279297 10.29620552062988 13.02787399291992 9.384805679321289 C 13.44943237304688 8.473405838012695 13.90934753417969 7.572351455688477 14.41355514526367 6.76994514465332 C 14.91776275634766 5.967538833618164 15.46627044677734 5.26378059387207 16.06501770019531 4.746969223022461 C 16.66376495361328 4.230157852172852 17.3127555847168 3.900297164916992 18.01792907714844 3.845684051513672 C 18.83017730712891 3.78242301940918 19.64242935180664 3.71923828125 20.45468902587891 3.656110763549805 C 21.26694488525391 3.592981338500977 22.07920455932617 3.5299072265625 22.89147186279297 3.466872215270996 C 23.70373916625977 3.403837203979492 24.51601409912109 3.340838432312012 25.32829666137695 3.277858734130859 C 26.14057922363281 3.214878082275391 26.95287322998047 3.151915550231934 27.76517868041992 3.088953018188477 L 32.47623062133789 2.723647117614746 C 32.4796142578125 2.723762512207031 32.48301696777344 2.723915100097656 32.4864387512207 2.724091529846191 C 32.48986053466797 2.724267959594727 32.4932975769043 2.724468231201172 32.49674606323242 2.724679946899414 C 32.50019454956055 2.724891662597656 32.50365447998047 2.725112915039062 32.50711822509766 2.72533130645752 C 32.51058197021484 2.725549697875977 32.51405715942383 2.725765228271484 32.51753234863281 2.725963592529297 C 32.52973937988281 2.726663589477539 32.54307556152344 2.727428436279297 32.55741882324219 2.728180885314941 C 32.57176208496094 2.728933334350586 32.58711242675781 2.72967529296875 32.60335540771484 2.730328559875488 C 32.61959838867188 2.730981826782227 32.63672637939453 2.731548309326172 32.65462493896484 2.731950759887695 C 32.67252349853516 2.732354164123535 32.69119262695312 2.732593536376953 32.71051025390625 2.732593536376953 L 32.73751831054688 2.732443809509277 C 32.763671875 2.732141494750977 32.7897834777832 2.73101806640625 32.81582641601562 2.729080200195312 C 32.84186553955078 2.727141380310059 32.86783218383789 2.724388122558594 32.89368438720703 2.7208251953125 C 32.91954040527344 2.717262268066406 32.94528198242188 2.712888717651367 32.97087860107422 2.707711219787598 C 32.9964714050293 2.702533721923828 33.02191543579102 2.696553230285645 33.04717254638672 2.689773559570312 C 33.14998245239258 2.662173271179199 33.25418090820312 2.637973785400391 33.35957336425781 2.61720085144043 C 33.4649658203125 2.596427917480469 33.57155609130859 2.579080581665039 33.67915344238281 2.565183639526367 C 33.78675079345703 2.551286697387695 33.89535522460938 2.540839195251465 34.00478363037109 2.533865928649902 C 34.11421203613281 2.52689266204834 34.22446060180664 2.523393630981445 34.33534240722656 2.523393630981445 C 35.01886367797852 2.523393630981445 35.69608688354492 2.651493072509766 36.33529663085938 2.88300609588623 C 36.97450256347656 3.114519119262695 37.57569122314453 3.449445724487305 38.10714721679688 3.863100051879883 C 38.63860702514648 4.276754379272461 39.1003303527832 4.769138336181641 39.46060562133789 5.31556510925293 C 39.82088088989258 5.861989974975586 40.07970809936523 6.462457656860352 40.20536804199219 7.092283248901367 C 40.210205078125 7.116521835327148 40.21575546264648 7.140594482421875 40.22200775146484 7.164472579956055 C 40.22826385498047 7.188348770141602 40.23522186279297 7.212028503417969 40.24287796020508 7.235483169555664 C 40.25053405761719 7.258935928344727 40.25888061523438 7.282163619995117 40.26791381835938 7.305133819580078 C 40.27694320678711 7.328104019165039 40.28665924072266 7.350818634033203 40.29705047607422 7.37324333190918 C 40.64687347412109 8.128190994262695 41.00996017456055 8.843835830688477 41.38774490356445 9.522314071655273 C 41.76552581787109 10.20079231262207 42.15801239013672 10.84210395812988 42.56663131713867 11.4483814239502 C 42.97525024414062 12.05465888977051 43.40000915527344 12.62590217590332 43.84234619140625 13.16424751281738 C 44.2846794128418 13.70259284973145 44.74459075927734 14.20804023742676 45.22351837158203 14.68272399902344 C 45.77433395385742 15.22865867614746 46.34688568115234 15.73150253295898 46.94345474243164 16.19259071350098 C 47.54002380371094 16.65367889404297 48.16060638427734 17.07301139831543 48.80748748779297 17.45191955566406 C 49.45436859130859 17.8308277130127 50.12754440307617 18.16931533813477 50.82929229736328 18.46871376037598 C 51.53104019165039 18.76811408996582 52.26136016845703 19.0284252166748 53.02252960205078 19.25098419189453 C 53.49301910400391 19.38857460021973 53.84031677246094 19.5971736907959 54.09547805786133 19.84055137634277 C 54.35064315795898 20.08393287658691 54.51367950439453 20.36208915710449 54.61564636230469 20.63879203796387 C 54.71761322021484 20.91549110412598 54.75851440429688 21.19073295593262 54.76941680908203 21.42828941345215 C 54.78031921386719 21.66584587097168 54.76121520996094 21.86571311950684 54.74317932128906 21.99166297912598 C 54.70451736450195 22.2616024017334 54.62765502929688 22.53668785095215 54.51354598999023 22.79747581481934 C 54.39943695068359 23.05825996398926 54.24807739257812 23.30475044250488 54.0604248046875 23.51749992370605 C 53.87277603149414 23.73024559020996 53.64883041381836 23.90925407409668 53.38954162597656 24.03507041931152 C 53.13025665283203 24.16089057922363 52.83562469482422 24.23352241516113 52.50661087036133 24.23352241516113 C 52.44472503662109 24.23352241516113 52.3818359375 24.23099327087402 52.31804656982422 24.2259578704834 C 52.2542610168457 24.22091865539551 52.18958282470703 24.21336936950684 52.12411880493164 24.20332527160645 C 52.05865859985352 24.19328117370605 51.99241638183594 24.18074607849121 51.92551040649414 24.16573143005371 C 51.85860443115234 24.15072059631348 51.79103088378906 24.13323020935059 51.72290802001953 24.11328315734863 C 50.42255401611328 23.73290824890137 49.18905639648438 23.26265144348145 48.01872253417969 22.69986534118652 C 46.84838485717773 22.13707542419434 45.7412109375 21.48175621032715 44.69350433349609 20.73126029968262 C 43.64579772949219 19.98076820373535 42.65755844116211 19.13509941101074 41.72509384155273 18.19161224365234 C 40.79262924194336 17.24812507629395 39.91593933105469 16.20682144165039 39.09133148193359 15.06505393981934 C 39.03238677978516 14.98344230651855 38.96458053588867 14.91025352478027 38.88977813720703 14.84637451171875 C 38.81497573852539 14.78249549865723 38.73317718505859 14.72793006896973 38.64625549316406 14.68356513977051 C 38.55933380126953 14.63920021057129 38.46728134155273 14.60503578186035 38.37197494506836 14.58196449279785 C 38.27667236328125 14.55889320373535 38.17810821533203 14.54691123962402 38.07815551757812 14.54691123962402 Z" stroke="none" fill="#fff"/>
        </g>
        <g id="Path_184" data-name="Path 184" transform="translate(54.221 48.249)" fill="none" stroke-linecap="round" stroke-linejoin="round">
          <path d="M3.164,4.7a5.353,5.353,0,0,0,.119-.875,5.308,5.308,0,0,0-.027-.873,5.472,5.472,0,0,0-.169-.861,5.833,5.833,0,0,0-.308-.84H11.04v30.9H1.25V12.907L2.964,6.127q.045-.177.08-.355t.06-.357q.025-.179.04-.358T3.164,4.7Z" stroke="none"/>
          <path d="M 1.250005722045898 33.40486145019531 L 11.0404167175293 33.40486145019531 C 11.2130069732666 33.40486145019531 11.37742710113525 33.36988830566406 11.52697563171387 33.30663299560547 C 11.67652320861816 33.24337768554688 11.81119918823242 33.15185546875 11.92430114746094 33.03874969482422 C 12.03740310668945 32.92564392089844 12.12893199920654 32.79096984863281 12.1921854019165 32.64141845703125 C 12.25543880462646 32.49187469482422 12.2904167175293 32.32745361328125 12.2904167175293 32.15486145019531 L 12.2904167175293 1.25 C 12.2904167175293 1.077407836914062 12.25543880462646 0.9129867553710938 12.1921854019165 0.7634391784667969 C 12.12893199920654 0.6138916015625 12.03740310668945 0.479217529296875 11.92430114746094 0.3661117553710938 C 11.81119918823242 0.2530097961425781 11.67652320861816 0.1614837646484375 11.52697563171387 0.09822845458984375 C 11.37742710113525 0.03497695922851562 11.2130069732666 0 11.0404167175293 0 L 2.779796600341797 0 C 2.673542022705078 0 2.569107055664062 0.01349639892578125 2.468629837036133 0.03932571411132812 C 2.368152618408203 0.065155029296875 2.271629333496094 0.1033172607421875 2.181198120117188 0.15264892578125 C 2.090766906738281 0.2019805908203125 2.006427764892578 0.2624778747558594 1.930316925048828 0.332977294921875 C 1.854204177856445 0.403472900390625 1.786319732666016 0.4839744567871094 1.728796005249023 0.5733108520507812 C 1.671276092529297 0.6626510620117188 1.626089096069336 0.7577667236328125 1.593414306640625 0.856231689453125 C 1.560737609863281 0.9547004699707031 1.540573120117188 1.0565185546875 1.53309440612793 1.159255981445312 C 1.525615692138672 1.261993408203125 1.530826568603516 1.365653991699219 1.548898696899414 1.467811584472656 C 1.566970825195312 1.569969177246094 1.597908020019531 1.670623779296875 1.641885757446289 1.767349243164062 C 1.741170883178711 1.985725402832031 1.821983337402344 2.205509185791016 1.88427734375 2.426311492919922 C 1.946569442749023 2.647113800048828 1.990345001220703 2.868934631347656 2.015558242797852 3.091384887695312 C 2.040771484375 3.313835144042969 2.04742431640625 3.536911010742188 2.035470962524414 3.760231018066406 C 2.023517608642578 3.983547210693359 1.992958068847656 4.207107543945312 1.943746566772461 4.430519104003906 C 1.939491271972656 4.449840545654297 1.935697555541992 4.469253540039062 1.932365417480469 4.488739013671875 C 1.929035186767578 4.508220672607422 1.926166534423828 4.527778625488281 1.923763275146484 4.547393798828125 C 1.921360015869141 4.567008972167969 1.919422149658203 4.586681365966797 1.917951583862305 4.606395721435547 C 1.916481018066406 4.626110076904297 1.915477752685547 4.645866394042969 1.914945602416992 4.665641784667969 C 1.912342071533203 4.761909484863281 1.906993865966797 4.858329772949219 1.898920059204102 4.954727172851562 C 1.890846252441406 5.051128387451172 1.880046844482422 5.147506713867188 1.866548538208008 5.243694305419922 C 1.853050231933594 5.339881896972656 1.836849212646484 5.435882568359375 1.817972183227539 5.531528472900391 C 1.799095153808594 5.627174377441406 1.777542114257812 5.722465515136719 1.753335952758789 5.817230224609375 L 0.03813552856445312 12.60105133056641 C 0.03180694580078125 12.62609100341797 0.02625846862792969 12.65130233764648 0.02149581909179688 12.67665100097656 C 0.01673507690429688 12.70199966430664 0.01276016235351562 12.72748565673828 0.009576797485351562 12.75306701660156 C 0.0063934326171875 12.77864837646484 0.003999710083007812 12.80432891845703 0.00240325927734375 12.83007049560547 C 0.000804901123046875 12.85581588745117 5.7220458984375e-06 12.88162231445312 5.7220458984375e-06 12.90745162963867 L 5.7220458984375e-06 32.15486145019531 C 5.7220458984375e-06 32.32745361328125 0.03498458862304688 32.49187469482422 0.098236083984375 32.64141845703125 C 0.1614894866943359 32.79096984863281 0.2530174255371094 32.92564392089844 0.3661212921142578 33.03874969482422 C 0.4792251586914062 33.15185546875 0.6139011383056641 33.24337768554688 0.7634487152099609 33.30663299560547 C 0.9129962921142578 33.36988830566406 1.077415466308594 33.40486145019531 1.250005722045898 33.40486145019531 Z M 9.790416717529297 30.90486145019531 L 2.500005722045898 30.90486145019531 L 2.500005722045898 13.06304168701172 L 4.17631721496582 6.433002471923828 C 4.209384918212891 6.303554534912109 4.239102363586426 6.173194885253906 4.265432357788086 6.042163848876953 C 4.29176139831543 5.9111328125 4.314703941345215 5.779430389404297 4.334220886230469 5.647293090820312 C 4.353736877441406 5.515155792236328 4.369828224182129 5.382583618164062 4.38245677947998 5.24981689453125 C 4.395085334777832 5.117053985595703 4.404251098632812 4.984092712402344 4.409916877746582 4.851173400878906 C 4.449111938476562 4.656581878662109 4.479386329650879 4.461112976074219 4.500784873962402 4.265167236328125 C 4.522183418273926 4.069225311279297 4.534706115722656 3.872810363769531 4.538397789001465 3.67633056640625 C 4.542089462280273 3.479854583740234 4.53695011138916 3.283317565917969 4.523025512695312 3.087127685546875 C 4.509100914001465 2.890933990478516 4.486391067504883 2.695091247558594 4.454941749572754 2.5 L 9.790416717529297 2.5 L 9.790416717529297 30.90486145019531 Z" stroke="none" fill="#fff"/>
        </g>
        <g id="Path_185" data-name="Path 185" transform="translate(36.682 48.248)" fill="none" stroke-linecap="round" stroke-linejoin="round">
          <path d="M7.845,5.382,4.779,17.515a6.618,6.618,0,0,0-.2,1.362,5.811,5.811,0,0,0,.094,1.3A5.376,5.376,0,0,0,5.721,22.5a5.674,5.674,0,0,0,.988.986,6.2,6.2,0,0,0,1.211.737,6.667,6.667,0,0,0,1.376.461,6.949,6.949,0,0,0,1.484.16h.064l.065,0,.065,0,.065,0v7.321H1.25V1.25H3.474q.573.458,1.134.946t1.108,1q.547.516,1.08,1.062T7.845,5.382Z" stroke="none"/>
          <path d="M 1.249988555908203 33.40615081787109 L 11.04040908813477 33.40615081787109 C 11.21299934387207 33.40615081787109 11.37741851806641 33.37117767333984 11.5269660949707 33.30792236328125 C 11.67651557922363 33.24466705322266 11.81119155883789 33.15314483642578 11.92429351806641 33.0400390625 C 12.03739547729492 32.92693328857422 12.12892532348633 32.79225921630859 12.19217872619629 32.64270782470703 C 12.25543212890625 32.4931640625 12.29040908813477 32.32874298095703 12.29040908813477 32.15615081787109 L 12.29040908813477 24.83546447753906 C 12.29040908813477 24.74939727783203 12.28153228759766 24.66427612304688 12.26430511474609 24.58132171630859 C 12.24707794189453 24.49836730957031 12.22149658203125 24.41757965087891 12.18808937072754 24.34016418457031 C 12.15468215942383 24.26274871826172 12.11344528198242 24.18871307373047 12.06490325927734 24.11927032470703 C 12.01636123657227 24.04983520507812 11.96051597595215 23.9849853515625 11.89788818359375 23.92594146728516 C 11.83974075317383 23.87111663818359 11.77694320678711 23.82242584228516 11.71048736572266 23.78022766113281 C 11.6440315246582 23.73802947998047 11.57391738891602 23.70232391357422 11.50114250183105 23.67346954345703 C 11.42836761474609 23.64461517333984 11.35292816162109 23.62261199951172 11.27581977844238 23.60782623291016 C 11.19871139526367 23.59304046630859 11.11993217468262 23.58546447753906 11.04047775268555 23.58546447753906 C 11.03435516357422 23.58546447753906 11.02823066711426 23.58550262451172 11.02210235595703 23.58559417724609 C 11.01597213745117 23.58568572998047 11.00984001159668 23.58582305908203 11.00370407104492 23.58600616455078 C 10.9975700378418 23.58618927001953 10.99143218994141 23.58641052246094 10.98529052734375 23.58667755126953 C 10.97914886474609 23.58695220947266 10.97300338745117 23.58727264404297 10.96685791015625 23.58763122558594 C 10.94811248779297 23.58873748779297 10.9301586151123 23.58979034423828 10.91301918029785 23.59075164794922 C 10.8958797454834 23.59172058105469 10.87955474853516 23.59259796142578 10.86406707763672 23.59333038330078 C 10.84857940673828 23.59406280517578 10.83393096923828 23.59465789794922 10.82014274597168 23.59506988525391 C 10.80635452270508 23.59548187255859 10.79342460632324 23.59571838378906 10.78137969970703 23.59571838378906 C 10.37055206298828 23.59571838378906 9.967254638671875 23.55222320556641 9.579219818115234 23.46875762939453 C 9.191184997558594 23.38528442382812 8.818414688110352 23.26184844970703 8.468639373779297 23.10198211669922 C 8.118864059448242 22.94211578369141 7.792083740234375 22.74581909179688 7.496034622192383 22.51662445068359 C 7.199985504150391 22.28742980957031 6.934665679931641 22.02533721923828 6.707809448242188 21.73387908935547 C 6.500350952148438 21.46743011474609 6.328849792480469 21.18073272705078 6.194038391113281 20.87778472900391 C 6.059223175048828 20.57483673095703 5.961097717285156 20.25563049316406 5.900386810302734 19.92417144775391 C 5.839675903320312 19.59271240234375 5.816383361816406 19.24900054931641 5.831241607666016 18.89702606201172 C 5.846099853515625 18.54505157470703 5.899105072021484 18.18482208251953 5.990989685058594 17.82033538818359 L 9.056808471679688 5.687831878662109 C 9.082345962524414 5.586769104003906 9.094863891601562 5.484188079833984 9.094919204711914 5.38232421875 C 9.094974517822266 5.28045654296875 9.082565307617188 5.179306030273438 9.058244705200195 5.081104278564453 C 9.033924102783203 4.982902526855469 8.997692108154297 4.887649536132812 8.950103759765625 4.797584533691406 C 8.902515411376953 4.707515716552734 8.843568801879883 4.622634887695312 8.773818969726562 4.545169830322266 C 8.422964096069336 4.155509948730469 8.064781188964844 3.773445129394531 7.699932098388672 3.399600982666016 C 7.3350830078125 3.0257568359375 6.963565826416016 2.660125732421875 6.586040496826172 2.303333282470703 C 6.208515167236328 1.946540832519531 5.824981689453125 1.598594665527344 5.436103820800781 1.260108947753906 C 5.047222137451172 0.9216232299804688 4.652992248535156 0.5926055908203125 4.254077911376953 0.2736701965332031 C 4.198680877685547 0.2293777465820312 4.139930725097656 0.1901283264160156 4.078529357910156 0.1561660766601562 C 4.017127990722656 0.1222076416015625 3.953075408935547 0.093536376953125 3.8870849609375 0.07040023803710938 C 3.821098327636719 0.04726409912109375 3.753166198730469 0.0296630859375 3.683998107910156 0.01784515380859375 C 3.614833831787109 0.006031036376953125 3.54443359375 0 3.473506927490234 0 L 1.249988555908203 0 C 1.077400207519531 0 0.9129791259765625 0.03497695922851562 0.7634315490722656 0.09822845458984375 C 0.6138839721679688 0.1614837646484375 0.4792060852050781 0.2530136108398438 0.3661041259765625 0.366119384765625 C 0.2530021667480469 0.4792213439941406 0.1614761352539062 0.6138992309570312 0.0982208251953125 0.7634468078613281 C 0.03496551513671875 0.912994384765625 -1.1444091796875e-05 1.077411651611328 -1.1444091796875e-05 1.25 L -1.1444091796875e-05 32.15615081787109 C -1.1444091796875e-05 32.32874298095703 0.03496551513671875 32.4931640625 0.0982208251953125 32.64270782470703 C 0.1614761352539062 32.79225921630859 0.2530021667480469 32.92693328857422 0.3661041259765625 33.0400390625 C 0.4792060852050781 33.15314483642578 0.6138839721679688 33.24466705322266 0.7634315490722656 33.30792236328125 C 0.9129791259765625 33.37117767333984 1.077400207519531 33.40615081787109 1.249988555908203 33.40615081787109 Z M 9.790409088134766 30.90615081787109 L 2.499988555908203 30.90615081787109 L 2.499988555908203 2.5 L 3.030773162841797 2.5 C 3.330757141113281 2.746200561523438 3.627788543701172 2.998542785644531 3.921539306640625 3.2567138671875 C 4.215290069580078 3.514881134033203 4.505760192871094 3.778877258300781 4.792613983154297 4.048393249511719 C 5.0794677734375 4.317909240722656 5.362712860107422 4.592941284179688 5.642013549804688 4.873176574707031 C 5.921318054199219 5.153415679931641 6.196678161621094 5.438858032226562 6.467765808105469 5.729194641113281 L 3.566997528076172 17.20854187011719 C 3.426963806152344 17.76404571533203 3.347869873046875 18.315185546875 3.328517913818359 18.85578155517578 C 3.309165954589844 19.39638519287109 3.349555969238281 19.92644500732422 3.448493957519531 20.43977355957031 C 3.547431945800781 20.95310211181641 3.704917907714844 21.44971466064453 3.919750213623047 21.92340850830078 C 4.13458251953125 22.39710998535156 4.406764984130859 22.847900390625 4.735099792480469 23.26959991455078 C 5.031711578369141 23.65067291259766 5.369277954101562 23.99868011474609 5.740455627441406 24.31018829345703 C 6.11163330078125 24.62169647216797 6.516426086425781 24.89671325683594 6.947486877441406 25.13179779052734 C 7.378549575805664 25.36688995361328 7.835884094238281 25.56204986572266 8.312152862548828 25.71385192871094 C 8.788419723510742 25.86565399169922 9.283618927001953 25.97409820556641 9.790409088134766 26.03575134277344 L 9.790409088134766 30.90615081787109 Z" stroke="none" fill="#fff"/>
        </g>
        <g id="Path_186" data-name="Path 186" transform="translate(17.542 57.571)" fill="none" stroke-linecap="round" stroke-linejoin="round">
          <path d="M4.1,12.065c.583-.75,1.165-1.552,1.747-2.4S7.01,7.94,7.589,7.025,8.746,5.163,9.321,4.2,10.47,2.245,11.04,1.25V22.829H1.25V14.141a5.832,5.832,0,0,0,.8-.342,5.976,5.976,0,0,0,.746-.462,6.273,6.273,0,0,0,.688-.579A6.73,6.73,0,0,0,4.1,12.065Z" stroke="none"/>
          <path d="M 1.250003814697266 24.07866668701172 L 11.04040145874023 24.07866668701172 C 11.21298980712891 24.07866668701172 11.37741088867188 24.04368591308594 11.52695846557617 23.98043823242188 C 11.67650604248047 23.91718292236328 11.81118392944336 23.82565307617188 11.92428588867188 23.71254730224609 C 12.03738784790039 23.59944152832031 12.12891387939453 23.46476745605469 12.19216918945312 23.31521606445312 C 12.25542449951172 23.16567230224609 12.29040145874023 23.00125122070312 12.29040145874023 22.82866668701172 L 12.29040145874023 1.250007629394531 C 12.29040145874023 1.108383178710938 12.26659393310547 0.9711875915527344 12.22232437133789 0.8427772521972656 C 12.17805480957031 0.7143669128417969 12.11332321166992 0.5947418212890625 12.03148651123047 0.4882659912109375 C 11.94965362548828 0.3817901611328125 11.85071182250977 0.2884635925292969 11.73801422119141 0.212646484375 C 11.62531661987305 0.1368293762207031 11.49886322021484 0.078521728515625 11.36201095581055 0.04208755493164062 C 11.33528900146484 0.03497314453125 11.30849456787109 0.028778076171875 11.28166198730469 0.02349090576171875 C 11.25482940673828 0.01819992065429688 11.22795867919922 0.01381683349609375 11.20109558105469 0.01031875610351562 C 11.17423248291016 0.0068206787109375 11.14737701416016 0.004215240478515625 11.12056350708008 0.002483367919921875 C 11.09375 0.000751495361328125 11.06698608398438 -0.0001068115234375 11.04030227661133 -0.0001068115234375 C 10.93033599853516 -0.0001068115234375 10.82174682617188 0.01445770263671875 10.7171745300293 0.04248428344726562 C 10.61260223388672 0.0705108642578125 10.51205062866211 0.1119956970214844 10.41815948486328 0.1658439636230469 C 10.32426452636719 0.2196922302246094 10.23703384399414 0.2859039306640625 10.15911102294922 0.363372802734375 C 10.08118438720703 0.4408378601074219 10.01256561279297 0.5295639038085938 9.955894470214844 0.628448486328125 C 9.482212066650391 1.454929351806641 8.971321105957031 2.337310791015625 8.433036804199219 3.24542236328125 C 7.894748687744141 4.153530120849609 7.329063415527344 5.087364196777344 6.74578857421875 6.016738891601562 C 6.162509918212891 6.946113586425781 5.561637878417969 7.87103271484375 4.952980041503906 8.761314392089844 C 4.344326019287109 9.651596069335938 3.727882385253906 10.50724792480469 3.11346435546875 11.29808044433594 C 2.960411071777344 11.4945068359375 2.796527862548828 11.67775726318359 2.623161315917969 11.84683227539062 C 2.449790954589844 12.01591491699219 2.266937255859375 12.17082214355469 2.075946807861328 12.31056213378906 C 1.884956359863281 12.45030212402344 1.685821533203125 12.57488250732422 1.479892730712891 12.68330383300781 C 1.273963928222656 12.79173278808594 1.061241149902344 12.88400268554688 0.8430633544921875 12.95912933349609 C 0.716949462890625 13.00254821777344 0.6012039184570312 13.06478881835938 0.4985198974609375 13.14205932617188 C 0.3958358764648438 13.21932220458984 0.3062210083007812 13.31161499023438 0.2323646545410156 13.41515350341797 C 0.15850830078125 13.51869201660156 0.1004180908203125 13.63347625732422 0.060791015625 13.75572204589844 C 0.0211639404296875 13.87796020507812 3.814697265625e-06 14.00765991210938 3.814697265625e-06 14.14103698730469 L 3.814697265625e-06 22.82866668701172 C 3.814697265625e-06 23.00125122070312 0.03498077392578125 23.16567230224609 0.098236083984375 23.31521606445312 C 0.1614913940429688 23.46476745605469 0.2530174255371094 23.59944152832031 0.366119384765625 23.71254730224609 C 0.4792213439941406 23.82565307617188 0.6138992309570312 23.91718292236328 0.7634468078613281 23.98043823242188 C 0.912994384765625 24.04368591308594 1.077415466308594 24.07866668701172 1.250003814697266 24.07866668701172 Z M 9.790401458740234 21.57866668701172 L 2.500003814697266 21.57866668701172 L 2.500003814697266 14.96955108642578 C 2.747360229492188 14.84645843505859 2.988044738769531 14.70869445800781 3.221096038818359 14.55697631835938 C 3.454147338867188 14.40525054931641 3.6795654296875 14.23956298828125 3.896396636962891 14.06060791015625 C 4.113227844238281 13.88165283203125 4.321464538574219 13.68943786621094 4.520145416259766 13.48464965820312 C 4.718826293945312 13.27986145019531 4.907955169677734 13.0625 5.086570739746094 12.83327484130859 C 5.494964599609375 12.30762481689453 5.900871276855469 11.76029968261719 6.303077697753906 11.19695281982422 C 6.705287933349609 10.63360595703125 7.103797912597656 10.05422973632812 7.497398376464844 9.464469909667969 C 7.890998840332031 8.874710083007812 8.279689788818359 8.274574279785156 8.662261962890625 7.669700622558594 C 9.044830322265625 7.064826965332031 9.421279907226562 6.455215454101562 9.790401458740234 5.846519470214844 L 9.790401458740234 21.57866668701172 Z" stroke="none" fill="#fff"/>
        </g>
        <g id="Path_187" data-name="Path 187" transform="translate(0 48.246)" fill="none" stroke-linecap="round" stroke-linejoin="round">
          <path d="M11.042,1.25h0V14.966a6.119,6.119,0,0,0-.439,1.249,5.77,5.77,0,0,0-.151,1.287,5.681,5.681,0,0,0,.144,1.29,5.9,5.9,0,0,0,.445,1.259v12.1H1.25V1.25h9.792Z" stroke="none"/>
          <path d="M 1.25 33.40359115600586 L 11.04169464111328 33.40359115600586 C 11.21427917480469 33.40359115600586 11.37870025634766 33.36861801147461 11.52824401855469 33.30536270141602 C 11.67779541015625 33.24210739135742 11.81246948242188 33.15058517456055 11.92557525634766 33.03747940063477 C 12.03868103027344 32.92437362670898 12.13021087646484 32.78969955444336 12.19346618652344 32.6401481628418 C 12.2567138671875 32.49060440063477 12.29169464111328 32.3261833190918 12.29169464111328 32.15359115600586 L 12.29169464111328 20.05118179321289 C 12.29169464111328 20.0038948059082 12.28901672363281 19.95676803588867 12.28369903564453 19.91000747680664 C 12.27838134765625 19.86324691772461 12.27043151855469 19.81686019897461 12.25990295410156 19.77106857299805 C 12.24937438964844 19.72527694702148 12.23626708984375 19.68007278442383 12.22061920166016 19.63568496704102 C 12.20497131347656 19.5912971496582 12.18679809570312 19.54772567749023 12.16614532470703 19.50519180297852 C 12.01127624511719 19.18623733520508 11.89520263671875 18.85819625854492 11.81793212890625 18.52516555786133 C 11.74066925048828 18.19213485717773 11.70220184326172 17.85409927368164 11.70252990722656 17.51516342163086 C 11.70286560058594 17.17623519897461 11.74198913574219 16.83639907836914 11.81990814208984 16.49975204467773 C 11.8978271484375 16.1630973815918 12.01454162597656 15.82963180541992 12.1700439453125 15.50345230102539 C 12.1900634765625 15.46145248413086 12.20767211914062 15.41846084594727 12.22283172607422 15.37469863891602 C 12.23799133300781 15.33093643188477 12.25069427490234 15.28640365600586 12.26089477539062 15.24129867553711 C 12.27110290527344 15.19619369506836 12.27880096435547 15.1505241394043 12.28395080566406 15.10449600219727 C 12.28909301757812 15.05846786499023 12.29169464111328 15.01208877563477 12.29169464111328 14.96555709838867 L 12.29169464111328 1.250003814697266 C 12.29169464111328 1.077411651611328 12.2567138671875 0.9129905700683594 12.19346618652344 0.7634429931640625 C 12.13021087646484 0.6138954162597656 12.03868103027344 0.4792213439941406 11.92557525634766 0.3661155700683594 C 11.81246948242188 0.2530136108398438 11.67779541015625 0.1614875793457031 11.52824401855469 0.09823226928710938 C 11.37870025634766 0.03498077392578125 11.21427917480469 3.814697265625e-06 11.04169464111328 3.814697265625e-06 L 1.25 3.814697265625e-06 C 1.077407836914062 3.814697265625e-06 0.912994384765625 0.03498077392578125 0.7634429931640625 0.09823226928710938 C 0.6138916015625 0.1614875793457031 0.479217529296875 0.2530136108398438 0.366119384765625 0.3661155700683594 C 0.2530136108398438 0.4792213439941406 0.1614837646484375 0.6138954162597656 0.09822845458984375 0.7634429931640625 C 0.03497314453125 0.9129905700683594 0 1.077411651611328 0 1.250003814697266 L 0 32.15359115600586 C 0 32.3261833190918 0.03497314453125 32.49060440063477 0.09822845458984375 32.6401481628418 C 0.1614837646484375 32.78969955444336 0.2530136108398438 32.92437362670898 0.366119384765625 33.03747940063477 C 0.479217529296875 33.15058517456055 0.6138916015625 33.24210739135742 0.7634429931640625 33.30536270141602 C 0.912994384765625 33.36861801147461 1.077407836914062 33.40359115600586 1.25 33.40359115600586 Z M 9.791694641113281 30.90359115600586 L 2.5 30.90359115600586 L 2.5 2.500003814697266 L 9.791694641113281 2.500003814697266 L 9.791694641113281 14.69578170776367 C 9.593612670898438 15.15539932250977 9.445060729980469 15.62371444702148 9.346023559570312 16.09598159790039 C 9.246994018554688 16.5682487487793 9.197486877441406 17.04446029663086 9.197494506835938 17.5198860168457 C 9.197509765625 17.99531173706055 9.247032165527344 18.46993637084961 9.3460693359375 18.93902206420898 C 9.445098876953125 19.40810012817383 9.593643188476562 19.87163925170898 9.791694641113281 20.32489395141602 L 9.791694641113281 30.90359115600586 Z" stroke="none" fill="#fff"/>
        </g>
      </g>
    </g>
  </g>
</svg>
