<svg xmlns="http://www.w3.org/2000/svg" xmlns:xlink="http://www.w3.org/1999/xlink" width="20" height="20" viewBox="0 0 20 20">
  <defs>
    <clipPath id="clip-path">
      <rect id="Rectangle_85" data-name="Rectangle 85" width="20" height="20" fill="#072974" stroke="#707070" stroke-width="1"/>
    </clipPath>
  </defs>
  <g id="icon-phone" clip-path="url(#clip-path)">
    <g id="_x32_7-Phone" transform="translate(0 0.001)">
      <path id="Path_78" data-name="Path 78" d="M24.676,20.432l-2.9-2.029a2.239,2.239,0,0,0-3.121.555l-.674.966a24.969,24.969,0,0,1-3.592-3.017,24.938,24.938,0,0,1-3.017-3.592l.966-.674a2.238,2.238,0,0,0,.555-3.121l-2.028-2.9A2.244,2.244,0,0,0,9.03,5.647a2.1,2.1,0,0,0-.73.13,4.021,4.021,0,0,0-.755.371l-.4.282a3.04,3.04,0,0,0-.283.253,4.027,4.027,0,0,0-1.032,1.84c-.836,3.133,1.235,7.871,5.152,11.788,3.29,3.29,7.242,5.333,10.314,5.334h0a5.722,5.722,0,0,0,1.474-.182,4.027,4.027,0,0,0,1.84-1.032,3.049,3.049,0,0,0,.265-.3l.283-.4a4.037,4.037,0,0,0,.358-.735,2.206,2.206,0,0,0-.839-2.561Z" transform="translate(-5.645 -5.647)" fill="#072974"/>
    </g>
  </g>
</svg>
