<svg xmlns="http://www.w3.org/2000/svg" xmlns:xlink="http://www.w3.org/1999/xlink" width="19" height="19" viewBox="0 0 19 19">
  <defs>
    <clipPath id="clip-path">
      <rect id="Rectangle_118" data-name="Rectangle 118" width="19" height="19" transform="translate(375 858)" fill="#072974" stroke="#707070" stroke-width="1"/>
    </clipPath>
  </defs>
  <g id="icon-area-w" transform="translate(-375 -858)" clip-path="url(#clip-path)">
    <g id="selection" transform="translate(375 858)">
      <g id="Group_126" data-name="Group 126">
        <path id="Path_98" data-name="Path 98" d="M18.53,3.865A.474.474,0,0,0,19,3.4V.47A.469.469,0,0,0,18.53,0H15.6a.468.468,0,0,0-.466.47V1.49H3.865V.47A.474.474,0,0,0,3.4,0H.47A.475.475,0,0,0,0,.47V3.4a.468.468,0,0,0,.47.466H1.49v11.27H.47A.474.474,0,0,0,0,15.6V18.53A.475.475,0,0,0,.47,19H3.4a.468.468,0,0,0,.466-.47V17.51h11.27v1.02A.474.474,0,0,0,15.6,19H18.53a.475.475,0,0,0,.47-.47V15.6a.468.468,0,0,0-.47-.466H17.51V3.865ZM.931,2.934v-2h2v2Zm2,15.135h-2v-2h2Zm12.2-2.468v.978H3.865V15.6a.467.467,0,0,0-.466-.466H2.422V3.865H3.4A.467.467,0,0,0,3.865,3.4V2.422h11.27V3.4a.467.467,0,0,0,.466.466h.978v11.27H15.6A.467.467,0,0,0,15.135,15.6Zm2.934.466v2h-2v-2Zm-2-13.132v-2h2v2Z" fill="#072974"/>
      </g>
    </g>
  </g>
</svg>
