<svg xmlns="http://www.w3.org/2000/svg" xmlns:xlink="http://www.w3.org/1999/xlink" width="19" height="19" viewBox="0 0 19 19">
  <defs>
    <clipPath id="clip-path">
      <rect id="Rectangle_117" data-name="Rectangle 117" width="19" height="19" transform="translate(375 819)" fill="#072974" stroke="#707070" stroke-width="1"/>
    </clipPath>
  </defs>
  <g id="icon-total-area-w" transform="translate(-375 -819)" clip-path="url(#clip-path)">
    <g id="Layer_2" data-name="Layer 2" transform="translate(374.367 818.367)">
      <path id="Path_96" data-name="Path 96" d="M16.011.633H4.256A3.629,3.629,0,0,0,.633,4.256V16.011a3.629,3.629,0,0,0,3.623,3.623H16.011a3.629,3.629,0,0,0,3.623-3.623V4.256A3.629,3.629,0,0,0,16.011.633Zm2.356,15.377a2.362,2.362,0,0,1-2.356,2.356H4.256A2.362,2.362,0,0,1,1.9,16.011V4.256A2.362,2.362,0,0,1,4.256,1.9H16.011a2.362,2.362,0,0,1,2.356,2.356Z" fill="#072974"/>
      <path id="Path_97" data-name="Path 97" d="M15.833,11.3a.633.633,0,0,0-.633.633v2.375L5.96,5.067H8.335a.633.633,0,0,0,0-1.267h-4.1a.437.437,0,0,0-.437.437v4.1a.633.633,0,0,0,1.267,0V5.96l9.24,9.24H11.932a.633.633,0,0,0,0,1.267h4.1a.437.437,0,0,0,.437-.437v-4.1A.633.633,0,0,0,15.833,11.3Z" fill="#072974"/>
    </g>
  </g>
</svg>
