<svg xmlns="http://www.w3.org/2000/svg" xmlns:xlink="http://www.w3.org/1999/xlink" width="20" height="20" viewBox="0 0 20 20">
  <defs>
    <clipPath id="clip-path">
      <rect id="Rectangle_280" data-name="Rectangle 280" width="20" height="20" transform="translate(375 3972)" fill="#072974" stroke="#707070" stroke-width="1"/>
    </clipPath>
  </defs>
  <g id="icon-water-w" transform="translate(-375 -3972)" clip-path="url(#clip-path)">
    <g id="drop" transform="translate(375 3972)">
      <g id="Group_196" data-name="Group 196">
        <g id="Group_195" data-name="Group 195">
          <path id="Path_170" data-name="Path 170" d="M11.847,2.205C11.386,1.526,10.978.9,10.6.33A.827.827,0,0,0,10.38.113.708.708,0,0,0,9.4.33C9.049.9,8.642,1.5,8.153,2.205,6.006,5.356,2.8,10.111,2.8,12.828a7.167,7.167,0,0,0,2.119,5.08A7.258,7.258,0,0,0,10,20a7.235,7.235,0,0,0,7.2-7.2C17.2,10.084,13.994,5.356,11.847,2.205ZM14.1,16.9A5.746,5.746,0,0,1,10,18.587,5.86,5.86,0,0,1,5.9,16.9a5.746,5.746,0,0,1-1.684-4.1c0-2.282,3.07-6.819,5.108-9.835.245-.353.462-.706.679-1.005.217.3.435.652.679,1.005,2.038,3.043,5.108,7.553,5.108,9.835A5.86,5.86,0,0,1,14.1,16.9Z" fill="#072974"/>
        </g>
      </g>
      <g id="Group_198" data-name="Group 198">
        <g id="Group_197" data-name="Group 197">
          <path id="Path_171" data-name="Path 171" d="M14.211,12.311a.7.7,0,0,0-.734.652,3.5,3.5,0,0,1-.516,1.657,3.3,3.3,0,0,1-1.25,1.2.718.718,0,0,0,.706,1.25,4.708,4.708,0,0,0,1.739-1.684,4.623,4.623,0,0,0,.706-2.336A.7.7,0,0,0,14.211,12.311Z" fill="#072974"/>
        </g>
      </g>
    </g>
  </g>
</svg>
