<svg xmlns="http://www.w3.org/2000/svg" xmlns:xlink="http://www.w3.org/1999/xlink" width="19" height="19" viewBox="0 0 19 19">
  <defs>
    <clipPath id="clip-path">
      <rect id="Rectangle_122" data-name="Rectangle 122" width="19" height="19" transform="translate(375 962)" fill="#072974" stroke="#707070" stroke-width="1"/>
    </clipPath>
  </defs>
  <g id="icon-pro-w" transform="translate(-375 -962)" clip-path="url(#clip-path)">
    <g id="factory_2_" data-name="factory (2)" transform="translate(375 962)">
      <path id="Path_101" data-name="Path 101" d="M17.474,7.828l-2.986,3.609V7.828H12.963L9.815,11.611V7.828H8.288l-3.03,3.678L4.765,6.884q.148.015.3.015a2.979,2.979,0,0,0,1.845-.642,3.342,3.342,0,0,0,4.108-.583,2.952,2.952,0,0,0,1.294.3,2.982,2.982,0,0,0,1.8-.609A2.695,2.695,0,1,0,14.246.739a2.972,2.972,0,0,0-3.732-.11,3.344,3.344,0,0,0-4.413.51A2.973,2.973,0,0,0,2.09,3.925H1.2L0,18.977H19V7.828ZM3.447,5.04l.119,1.115H2.144L2.233,5.04ZM5.064,2.067a1.856,1.856,0,0,1,.926.248l.454.262.289-.437a2.228,2.228,0,0,1,3.41-.375l.411.4.387-.422a1.858,1.858,0,0,1,2.805.076l.36.438.432-.368a1.58,1.58,0,1,1-.067,2.344l-.41-.392-.385.417a1.857,1.857,0,0,1-2.459.243l-.462-.337-.325.471A2.232,2.232,0,0,1,8.594,5.6,2.2,2.2,0,0,1,7.2,5.11l-.41-.327-.352.389a1.859,1.859,0,0,1-1.8.564L4.45,3.925H3.205A1.86,1.86,0,0,1,5.064,2.067ZM1.208,17.862,2.055,7.27h1.63l1.13,10.592Zm16.677-3.345h-2.23v1.115h2.23v2.23H5.936L5.7,15.632H7.851V14.517H5.58l-.156-1.459L8.7,9.081v3.95h1.384l3.289-3.953v3.953h1.244L17.885,9.08Z" fill="#072974"/>
      <path id="Path_102" data-name="Path 102" d="M8.966,14.517H11.2v1.115H8.966Z" fill="#072974"/>
      <path id="Path_103" data-name="Path 103" d="M12.31,14.517h2.23v1.115H12.31Z" fill="#072974"/>
    </g>
  </g>
</svg>
