<svg xmlns="http://www.w3.org/2000/svg" xmlns:xlink="http://www.w3.org/1999/xlink" width="20" height="20" viewBox="0 0 20 20">
  <defs>
    <clipPath id="clip-path">
      <rect id="Rectangle_282" data-name="Rectangle 282" width="20" height="20" transform="translate(643 3972)" fill="#072974" stroke="#707070" stroke-width="1"/>
    </clipPath>
  </defs>
  <g id="icon-ex-water-w" transform="translate(-643 -3972)" clip-path="url(#clip-path)">
    <g id="valve" transform="translate(643 3972)">
      <g id="Group_199" data-name="Group 199">
        <path id="Path_172" data-name="Path 172" d="M19.414,11.8h-1.9a1.757,1.757,0,0,0-3.3-.038,6.925,6.925,0,0,0-1.287-.627v-.607a1.758,1.758,0,0,0-.586-3.415h-.586V5.759A1.761,1.761,0,0,0,12.93,4.1V3.516h2.93a1.758,1.758,0,0,0,0-3.516H4.141a1.758,1.758,0,0,0,0,3.516H7.07V4.1A1.761,1.761,0,0,0,8.242,5.759V7.109H7.656a1.758,1.758,0,0,0-.586,3.415v.607a6.923,6.923,0,0,0-1.287.627,1.757,1.757,0,0,0-3.3.038H.586A.586.586,0,0,0,0,12.383v5.859a.586.586,0,0,0,.586.586h1.9a1.757,1.757,0,0,0,3.3.038A7.994,7.994,0,0,0,10,20a7.994,7.994,0,0,0,4.216-1.134,1.757,1.757,0,0,0,3.3-.038h1.9A.586.586,0,0,0,20,18.242V12.383A.586.586,0,0,0,19.414,11.8ZM2.383,17.656H1.172V12.969H2.383Zm2.344.586a.586.586,0,0,1-1.172,0V12.383a.586.586,0,0,1,1.172,0ZM11.758,4.1a.587.587,0,0,1-.586.586H8.828A.587.587,0,0,1,8.242,4.1V3.516h3.516ZM10.586,5.859v1.25H9.414V5.859ZM4.141,2.344a.586.586,0,0,1,0-1.172H15.859a.586.586,0,0,1,0,1.172ZM7.656,8.281h4.688a.586.586,0,0,1,0,1.172H7.656a.586.586,0,0,1,0-1.172ZM14.1,17.656h0a.586.586,0,0,0-.331.1A6.712,6.712,0,0,1,10,18.828a6.712,6.712,0,0,1-3.769-1.069.586.586,0,0,0-.331-.1h0V12.969h0a.586.586,0,0,0,.331-.1,5.828,5.828,0,0,1,1.6-.753.586.586,0,0,0,.415-.56v-.927h3.516v.927a.586.586,0,0,0,.415.56,5.83,5.83,0,0,1,1.6.753.586.586,0,0,0,.331.1h0Zm2.344.586a.586.586,0,0,1-1.172,0V12.383a.586.586,0,0,1,1.172,0Zm2.383-.586H17.617V12.969h1.211Z" fill="#072974"/>
      </g>
    </g>
  </g>
</svg>
