<svg xmlns="http://www.w3.org/2000/svg" xmlns:xlink="http://www.w3.org/1999/xlink" width="20" height="20" viewBox="0 0 20 20">
  <defs>
    <clipPath id="clip-path">
      <rect id="Rectangle_291" data-name="Rectangle 291" width="20" height="20" fill="#072974" stroke="#707070" stroke-width="1"/>
    </clipPath>
  </defs>
  <g id="icon-email" clip-path="url(#clip-path)">
    <g id="email_1_" data-name="email (1)" transform="translate(0 2.969)">
      <g id="Group_215" data-name="Group 215" transform="translate(1.024 7.861)">
        <g id="Group_214" data-name="Group 214">
          <path id="Path_198" data-name="Path 198" d="M12.959,10.83l-1.675,1.681a1.854,1.854,0,0,1-2.568,0L7.041,10.83,1.024,16.866a1.741,1.741,0,0,0,.733.165H18.242a1.739,1.739,0,0,0,.733-.165Z" transform="translate(-1.024 -10.83)" fill="#072974"/>
        </g>
      </g>
      <g id="Group_217" data-name="Group 217" transform="translate(1.025)">
        <g id="Group_216" data-name="Group 216">
          <path id="Path_199" data-name="Path 199" d="M18.242,2.969H1.758a1.74,1.74,0,0,0-.733.165l6.429,6.45h0l2.09,2.1a.7.7,0,0,0,.909,0l2.09-2.1h0l6.429-6.45A1.739,1.739,0,0,0,18.242,2.969Z" transform="translate(-1.025 -2.969)" fill="#072974"/>
        </g>
      </g>
      <g id="Group_219" data-name="Group 219" transform="translate(0 0.985)">
        <g id="Group_218" data-name="Group 218">
          <path id="Path_200" data-name="Path 200" d="M.187,3.954A1.736,1.736,0,0,0,0,4.727V15.273a1.736,1.736,0,0,0,.187.773L6.214,10Z" transform="translate(0 -3.954)" fill="#072974"/>
        </g>
      </g>
      <g id="Group_221" data-name="Group 221" transform="translate(13.786 0.985)">
        <g id="Group_220" data-name="Group 220">
          <path id="Path_201" data-name="Path 201" d="M19.813,3.954,13.786,10l6.027,6.046A1.736,1.736,0,0,0,20,15.273V4.727A1.736,1.736,0,0,0,19.813,3.954Z" transform="translate(-13.786 -3.954)" fill="#072974"/>
        </g>
      </g>
    </g>
  </g>
</svg>
