<svg xmlns="http://www.w3.org/2000/svg" xmlns:xlink="http://www.w3.org/1999/xlink" width="19" height="19" viewBox="0 0 19 19">
  <defs>
    <clipPath id="clip-path">
      <rect id="Rectangle_121" data-name="Rectangle 121" width="19" height="19" transform="translate(375 1001)" fill="#072974" stroke="#707070" stroke-width="1"/>
    </clipPath>
  </defs>
  <g id="icon-calde-w" transform="translate(-375 -1001)" clip-path="url(#clip-path)">
    <g id="timetable" transform="translate(375 1001)">
      <path id="Path_104" data-name="Path 104" d="M17.887,10.845V1.707a.557.557,0,0,0-.557-.557H14.51V.557a.557.557,0,0,0-1.113,0V1.15H11.17V.557a.557.557,0,0,0-1.113,0V1.15H7.83V.557a.557.557,0,0,0-1.113,0V1.15H4.49V.557a.557.557,0,0,0-1.113,0V1.15H.557A.557.557,0,0,0,0,1.707v14.51a.557.557,0,0,0,.557.557h9.27a5.008,5.008,0,1,0,8.06-5.928ZM3.377,2.264V2.82a.557.557,0,0,0,1.113,0V2.264H6.717V2.82a.557.557,0,0,0,1.113,0V2.264h2.227V2.82a.557.557,0,0,0,1.113,0V2.264H13.4V2.82a.557.557,0,0,0,1.113,0V2.264h2.264V4.49H1.113V2.264ZM1.113,15.66V5.6h15.66V9.827a5,5,0,0,0-6.986,1.44.553.553,0,0,0-.25-.06H8.424a.557.557,0,0,0,0,1.113h.843a4.968,4.968,0,0,0-.255,1.113H8.424a.557.557,0,0,0,0,1.113h.588a4.96,4.96,0,0,0,.255,1.113ZM13.99,17.887a3.9,3.9,0,1,1,3.9-3.9A3.9,3.9,0,0,1,13.99,17.887Zm0,0" fill="#072974"/>
      <path id="Path_105" data-name="Path 105" d="M16.217,13.434h-1.67v-1.67a.557.557,0,0,0-1.113,0V13.99a.557.557,0,0,0,.557.557h2.227a.557.557,0,0,0,0-1.113Zm0,0" fill="#072974"/>
      <path id="Path_106" data-name="Path 106" d="M5.047,6.754H3.934a.557.557,0,0,0,0,1.113H5.047a.557.557,0,0,0,0-1.113Zm0,0" fill="#072974"/>
      <path id="Path_107" data-name="Path 107" d="M5.047,8.98H3.934a.557.557,0,0,0,0,1.113H5.047a.557.557,0,0,0,0-1.113Zm0,0" fill="#072974"/>
      <path id="Path_108" data-name="Path 108" d="M5.047,11.207H3.934a.557.557,0,0,0,0,1.113H5.047a.557.557,0,0,0,0-1.113Zm0,0" fill="#072974"/>
      <path id="Path_109" data-name="Path 109" d="M8.424,7.867H9.537a.557.557,0,0,0,0-1.113H8.424a.557.557,0,0,0,0,1.113Zm0,0" fill="#072974"/>
      <path id="Path_110" data-name="Path 110" d="M8.424,10.094H9.537a.557.557,0,0,0,0-1.113H8.424a.557.557,0,0,0,0,1.113Zm0,0" fill="#072974"/>
      <path id="Path_111" data-name="Path 111" d="M5.047,13.434H3.934a.557.557,0,0,0,0,1.113H5.047a.557.557,0,0,0,0-1.113Zm0,0" fill="#072974"/>
      <path id="Path_112" data-name="Path 112" d="M12.877,7.867H13.99a.557.557,0,0,0,0-1.113H12.877a.557.557,0,0,0,0,1.113Zm0,0" fill="#072974"/>
    </g>
  </g>
</svg>
