<svg xmlns="http://www.w3.org/2000/svg" xmlns:xlink="http://www.w3.org/1999/xlink" width="83" height="85" viewBox="0 0 83 85">
  <defs>
    <clipPath id="clip-path">
      <rect id="Rectangle_266" data-name="Rectangle 266" width="83" height="85" transform="translate(0.055 0.189)" fill="#fff" stroke="#707070" stroke-width="1"/>
    </clipPath>
  </defs>
  <g id="icon-fly" transform="translate(-0.055 -0.189)" clip-path="url(#clip-path)">
    <g id="airplane" transform="translate(0.054 -0.241)">
      <path id="Path_157" data-name="Path 157" d="M79.8,52.562l2.413-2.412a3.9,3.9,0,0,0-4.916-6l-.508-1.706L79.4,39.836A3.893,3.893,0,0,0,74.27,34L71.176,23.61c1.236-1.19,2.42-2.348,3.535-3.464a41.165,41.165,0,0,0,7.361-9.583c2.588-5.01,1.5-7.689.14-9.053s-4.042-2.447-9.053.141a41.128,41.128,0,0,0-9.582,7.36c-1.116,1.116-2.274,2.3-3.464,3.535L49.723,9.452a3.893,3.893,0,0,0-5.837-5.129L41.274,6.935l-1.707-.508a3.9,3.9,0,0,0-6-4.916L31.16,3.922,18.867.26a1.243,1.243,0,0,0-1.234.313L14.468,3.737a1.255,1.255,0,0,0,.145,1.882l31.018,22.7C38.637,36.209,31.9,44.1,27.144,49.745L18.02,46.235a1.243,1.243,0,0,0-1.325.281l-3.751,3.751a1.243,1.243,0,0,0,0,1.758L31.7,70.778a1.255,1.255,0,0,0,1.758,0l3.75-3.75a1.243,1.243,0,0,0,.281-1.326l-3.509-9.123C39.618,51.822,47.513,45.085,55.4,38.091l2.464,3.367a1.243,1.243,0,0,0,2.007-1.468l-2.6-3.559c4.124-3.681,8.2-7.394,11.891-10.893L80.868,64.855,79.252,66.47l-16.1-21.992a1.243,1.243,0,1,0-2.006,1.469L78.1,69.109a1.255,1.255,0,0,0,1.882.145l3.165-3.165a1.243,1.243,0,0,0,.313-1.234ZM45.645,6.081a1.409,1.409,0,0,1,1.992,1.992l-.583.583-3.071-.915ZM35.33,3.268a1.409,1.409,0,1,1,1.992,1.992l-.383.383-3.07-.914ZM17.251,4.47l1.615-1.615L58.185,14.566c-3.5,3.7-7.213,7.768-10.894,11.892Zm.63,44.377,7.569,2.911c-1.9,2.261-3.354,4.01-4.213,5.045l-5.656-5.656ZM23,58.568c4.334-5.228,27.24-32.708,42.331-47.8A39.188,39.188,0,0,1,74.3,3.86c2.029-1.049,4.744-2,6.154-.592s.456,4.125-.592,6.154a39.206,39.206,0,0,1-6.91,8.965c-15.09,15.09-42.57,38-47.8,42.331Zm11.873,7.272-2.3,2.3L26.92,62.484c1.034-.858,2.784-2.314,5.045-4.213ZM78.462,46.4a1.409,1.409,0,0,1,1.992,1.992l-1.461,1.461-.915-3.07ZM75.649,36.085a1.409,1.409,0,0,1,1.992,1.992L75.98,39.739l-.915-3.071Zm0,0" transform="translate(0.68 -0.078)" fill="#fff"/>
      <path id="Path_158" data-name="Path 158" d="M71.357,68.019,60.748,78.627a1.243,1.243,0,1,0,1.758,1.758L73.115,69.777a1.243,1.243,0,0,0-1.758-1.758Zm0,0" transform="translate(3.264 3.575)" fill="#fff"/>
      <path id="Path_159" data-name="Path 159" d="M67.878,64.745a1.243,1.243,0,0,0-1.758-1.758l-6.63,6.63a1.243,1.243,0,1,0,1.758,1.758Zm0,0" transform="translate(3.196 3.303)" fill="#fff"/>
      <path id="Path_160" data-name="Path 160" d="M64,58.455A1.243,1.243,0,1,0,62.244,56.7L57.6,61.338A1.243,1.243,0,0,0,59.362,63.1Zm0,0" transform="translate(3.094 2.963)" fill="#fff"/>
      <path id="Path_161" data-name="Path 161" d="M12.731,8.263a1.244,1.244,0,0,0-1.758,0L.364,18.872a1.242,1.242,0,0,0,0,1.758,1.256,1.256,0,0,0,1.758,0L12.73,10.022a1.244,1.244,0,0,0,0-1.758Zm0,0" transform="translate(0 0.345)" fill="#fff"/>
      <path id="Path_162" data-name="Path 162" d="M17.558,13.3a1.242,1.242,0,0,0-1.758,0l-6.63,6.63a1.243,1.243,0,1,0,1.758,1.758l6.63-6.63a1.243,1.243,0,0,0,0-1.758Zm0,0" transform="translate(0.476 0.617)" fill="#fff"/>
      <path id="Path_163" data-name="Path 163" d="M17.347,23.469a1.256,1.256,0,0,0,1.758,0l4.641-4.641a1.243,1.243,0,0,0-1.758-1.758L17.347,21.71a1.244,1.244,0,0,0,0,1.758Zm0,0" transform="translate(0.918 0.821)" fill="#fff"/>
    </g>
  </g>
</svg>
