<svg xmlns="http://www.w3.org/2000/svg" xmlns:xlink="http://www.w3.org/1999/xlink" width="19" height="19" viewBox="0 0 19 19">
  <defs>
    <clipPath id="clip-path">
      <rect id="Rectangle_119" data-name="Rectangle 119" width="19" height="19" transform="translate(375 897)" fill="#072974" stroke="#707070" stroke-width="1"/>
    </clipPath>
  </defs>
  <g id="icon-address-w" transform="translate(-375 -897)" clip-path="url(#clip-path)">
    <g id="placeholder" transform="translate(375 897)">
      <g id="Group_128" data-name="Group 128">
        <g id="Group_127" data-name="Group 127">
          <path id="Path_99" data-name="Path 99" d="M9.5,0A6.681,6.681,0,0,0,3.817,10.192l5.3,8.545A.557.557,0,0,0,9.593,19h0a.557.557,0,0,0,.473-.271L15.238,10.1A6.681,6.681,0,0,0,9.5,0Zm4.782,9.53-4.7,7.844L4.764,9.606a5.57,5.57,0,1,1,9.519-.075Z" fill="#072974"/>
        </g>
      </g>
      <g id="Group_130" data-name="Group 130">
        <g id="Group_129" data-name="Group 129">
          <path id="Path_100" data-name="Path 100" d="M9.5,3.34a3.34,3.34,0,1,0,3.34,3.34A3.344,3.344,0,0,0,9.5,3.34Zm0,5.574A2.234,2.234,0,1,1,11.73,6.68,2.236,2.236,0,0,1,9.5,8.914Z" fill="#072974"/>
        </g>
      </g>
    </g>
  </g>
</svg>
